<svg width="13" height="12" viewBox="0 0 13 12" fill="none" xmlns="http://www.w3.org/2000/svg">
<g style="mix-blend-mode:lighten">
<path d="M9.09698 8.91069C8.5164 9.49761 7.77471 9.89904 6.96591 10.0641C6.15712 10.2291 5.31764 10.1503 4.55385 9.83774C3.79007 9.52514 3.13637 8.99279 2.67561 8.30816C2.21485 7.62352 1.96777 6.81743 1.96569 5.99204C1.9636 5.16665 2.20661 4.35913 2.6639 3.67181C3.1212 2.98449 3.7722 2.44832 4.53439 2.13126C5.29659 1.8142 6.13567 1.73051 6.94529 1.89081C7.7549 2.05111 8.49859 2.4482 9.08213 3.03171C9.86094 3.8105 10.2997 4.86604 10.3025 5.96765C10.3053 7.06926 9.87185 8.12736 9.09698 8.91069V8.91069Z" fill="#6EE8FC"/>
</g>
</svg>
