<svg width="32" height="31" viewBox="0 0 32 31" fill="none" xmlns="http://www.w3.org/2000/svg">
<path d="M8.58471 22.9031C7.07692 21.3953 6.05028 19.4741 5.63461 17.3824C5.21895 15.2906 5.43294 13.1224 6.24951 11.1518C7.06608 9.18126 8.44856 7.49682 10.2221 6.31157C11.9957 5.12631 14.0807 4.49345 16.2135 4.49303C18.3462 4.4926 20.431 5.12464 22.2041 6.30919C23.9772 7.49374 25.359 9.17761 26.1748 11.1479C26.9905 13.1181 27.2036 15.2863 26.7871 17.3781C26.3706 19.47 25.3433 21.3917 23.8349 22.9001C21.8122 24.9228 19.0691 26.0594 16.2091 26.06C13.3492 26.0605 10.6066 24.925 8.58471 22.9031V22.9031ZM20.6334 10.8544C19.7592 9.98009 18.6452 9.38481 17.4324 9.14379C16.2195 8.90278 14.9623 9.02687 13.8197 9.50035C12.6771 9.97382 11.7004 10.7754 11.0131 11.8038C10.3259 12.8321 9.95895 14.0411 9.9587 15.2777C9.95845 16.5144 10.3249 17.7232 11.0118 18.7513C11.6986 19.7794 12.675 20.5806 13.8174 21.0536C14.9598 21.5266 16.217 21.6502 17.4299 21.4087C18.6428 21.1672 19.7571 20.5715 20.6317 19.6969C21.799 18.5211 22.4543 16.9317 22.4546 15.2753C22.4549 13.6188 21.8003 12.0296 20.6334 10.8544V10.8544Z" fill="#6EE1F8"/>
</svg>
