<svg width="14" height="14" viewBox="0 0 14 14" fill="none" xmlns="http://www.w3.org/2000/svg">
<g style="mix-blend-mode:lighten" opacity="0.8">
<path d="M10.3647 10.5606C9.73095 11.1944 8.92355 11.6261 8.04461 11.8011C7.16568 11.9761 6.25468 11.8865 5.42684 11.5438C4.59901 11.201 3.8915 10.6204 3.39379 9.8754C2.89608 9.1304 2.63052 8.25446 2.6307 7.35834C2.63088 6.46222 2.89679 5.58617 3.39479 4.84098C3.8928 4.09578 4.60054 3.5149 5.42851 3.17181C6.25649 2.82871 7.16752 2.73882 8.04639 2.91347C8.92525 3.08811 9.73248 3.51947 10.366 4.153C11.2155 5.00253 11.6927 6.15488 11.6924 7.35654C11.6922 8.5582 11.2146 9.71073 10.3647 10.5606Z" fill="#D4088C"/>
</g>
</svg>
