<svg xmlns="http://www.w3.org/2000/svg" viewBox="0 0 150 30" width="150" height="30" preserveAspectRatio="xMidYMid meet" style="width: 100%; height: 100%; transform: translate3d(0px, 0px, 0px);"><defs><clipPath id="__lottie_element_3"><rect width="150" height="30" x="0" y="0"></rect></clipPath><clipPath id="__lottie_element_5"><path d="M0,0 L150,0 L150,30 L0,30z"></path></clipPath><clipPath id="__lottie_element_9"><path d="M0,0 L110,0 L110,30 L0,30z"></path></clipPath></defs><g clip-path="url(#__lottie_element_3)"><g clip-path="url(#__lottie_element_5)" transform="matrix(1,0,0,1,0,0)" opacity="1" style="display: block;"><g clip-path="url(#__lottie_element_9)" transform="matrix(1,0,0,1,20,0)" opacity="1" style="display: block;"><g transform="matrix(0.23115000128746033,0,0,0.23115000128746033,-3.5374984741210938,0.9276504516601562)" opacity="1" style="display: block;"><g opacity="1" transform="matrix(1,0,0,1,112.20999908447266,112.40599822998047)"><path fill="rgb(235,184,28)" fill-opacity="1" d=" M-6.070000171661377,9.324999809265137 C-6.070000171661377,9.324999809265137 0,5.625 0,5.625 C0,5.625 6.059999942779541,9.324999809265137 6.059999942779541,9.324999809265137 C6.059999942779541,9.324999809265137 4.409999847412109,2.4149999618530273 4.409999847412109,2.4149999618530273 C4.409999847412109,2.4149999618530273 9.8100004196167,-2.2049999237060547 9.8100004196167,-2.2049999237060547 C9.8100004196167,-2.2049999237060547 2.7200000286102295,-2.7660000324249268 2.7200000286102295,-2.7660000324249268 C2.7200000286102295,-2.7660000324249268 0,-9.324999809265137 0,-9.324999809265137 C0,-9.324999809265137 -2.7300000190734863,-2.7660000324249268 -2.7300000190734863,-2.7660000324249268 C-2.7300000190734863,-2.7660000324249268 -9.8100004196167,-2.2049999237060547 -9.8100004196167,-2.2049999237060547 C-9.8100004196167,-2.2049999237060547 -4.409999847412109,2.4149999618530273 -4.409999847412109,2.4149999618530273 C-4.409999847412109,2.4149999618530273 -6.070000171661377,9.324999809265137 -6.070000171661377,9.324999809265137z"></path></g><g opacity="1" transform="matrix(1,0,0,1,142.05999755859375,112.40599822998047)"><path fill="rgb(235,184,28)" fill-opacity="1" d=" M-6.070000171661377,9.324999809265137 C-6.070000171661377,9.324999809265137 0,5.625 0,5.625 C0,5.625 6.059999942779541,9.324999809265137 6.059999942779541,9.324999809265137 C6.059999942779541,9.324999809265137 4.409999847412109,2.4149999618530273 4.409999847412109,2.4149999618530273 C4.409999847412109,2.4149999618530273 9.8100004196167,-2.2049999237060547 9.8100004196167,-2.2049999237060547 C9.8100004196167,-2.2049999237060547 2.7200000286102295,-2.7660000324249268 2.7200000286102295,-2.7660000324249268 C2.7200000286102295,-2.7660000324249268 0,-9.324999809265137 0,-9.324999809265137 C0,-9.324999809265137 -2.7300000190734863,-2.7660000324249268 -2.7300000190734863,-2.7660000324249268 C-2.7300000190734863,-2.7660000324249268 -9.8100004196167,-2.2049999237060547 -9.8100004196167,-2.2049999237060547 C-9.8100004196167,-2.2049999237060547 -4.409999847412109,2.4149999618530273 -4.409999847412109,2.4149999618530273 C-4.409999847412109,2.4149999618530273 -6.070000171661377,9.324999809265137 -6.070000171661377,9.324999809265137z"></path></g><g opacity="1" transform="matrix(1,0,0,1,173.4199981689453,112.40599822998047)"><path fill="rgb(235,184,28)" fill-opacity="1" d=" M-6.059999942779541,9.324999809265137 C-6.059999942779541,9.324999809265137 0,5.625 0,5.625 C0,5.625 6.059999942779541,9.324999809265137 6.059999942779541,9.324999809265137 C6.059999942779541,9.324999809265137 4.409999847412109,2.4149999618530273 4.409999847412109,2.4149999618530273 C4.409999847412109,2.4149999618530273 9.8100004196167,-2.2049999237060547 9.8100004196167,-2.2049999237060547 C9.8100004196167,-2.2049999237060547 2.7300000190734863,-2.7660000324249268 2.7300000190734863,-2.7660000324249268 C2.7300000190734863,-2.7660000324249268 0,-9.324999809265137 0,-9.324999809265137 C0,-9.324999809265137 -2.7300000190734863,-2.7660000324249268 -2.7300000190734863,-2.7660000324249268 C-2.7300000190734863,-2.7660000324249268 -9.8100004196167,-2.2049999237060547 -9.8100004196167,-2.2049999237060547 C-9.8100004196167,-2.2049999237060547 -4.409999847412109,2.4149999618530273 -4.409999847412109,2.4149999618530273 C-4.409999847412109,2.4149999618530273 -6.059999942779541,9.324999809265137 -6.059999942779541,9.324999809265137z"></path></g><g opacity="1" transform="matrix(1,0,0,1,204.78500366210938,112.40599822998047)"><path fill="rgb(235,184,28)" fill-opacity="1" d=" M-6.065000057220459,9.324999809265137 C-6.065000057220459,9.324999809265137 -0.004999999888241291,5.625 -0.004999999888241291,5.625 C-0.004999999888241291,5.625 6.065000057220459,9.324999809265137 6.065000057220459,9.324999809265137 C6.065000057220459,9.324999809265137 4.414999961853027,2.4149999618530273 4.414999961853027,2.4149999618530273 C4.414999961853027,2.4149999618530273 9.805000305175781,-2.2049999237060547 9.805000305175781,-2.2049999237060547 C9.805000305175781,-2.2049999237060547 2.7249999046325684,-2.7660000324249268 2.7249999046325684,-2.7660000324249268 C2.7249999046325684,-2.7660000324249268 -0.004999999888241291,-9.324999809265137 -0.004999999888241291,-9.324999809265137 C-0.004999999888241291,-9.324999809265137 -2.7249999046325684,-2.7660000324249268 -2.7249999046325684,-2.7660000324249268 C-2.7249999046325684,-2.7660000324249268 -9.805000305175781,-2.2049999237060547 -9.805000305175781,-2.2049999237060547 C-9.805000305175781,-2.2049999237060547 -4.40500020980835,2.4149999618530273 -4.40500020980835,2.4149999618530273 C-4.40500020980835,2.4149999618530273 -6.065000057220459,9.324999809265137 -6.065000057220459,9.324999809265137z"></path></g><g opacity="1" transform="matrix(1,0,0,1,236.14999389648438,112.40599822998047)"><path fill="rgb(235,184,28)" fill-opacity="1" d=" M-6.059999942779541,9.324999809265137 C-6.059999942779541,9.324999809265137 0,5.625 0,5.625 C0,5.625 6.059999942779541,9.324999809265137 6.059999942779541,9.324999809265137 C6.059999942779541,9.324999809265137 4.409999847412109,2.4149999618530273 4.409999847412109,2.4149999618530273 C4.409999847412109,2.4149999618530273 9.8100004196167,-2.2049999237060547 9.8100004196167,-2.2049999237060547 C9.8100004196167,-2.2049999237060547 2.7300000190734863,-2.7660000324249268 2.7300000190734863,-2.7660000324249268 C2.7300000190734863,-2.7660000324249268 0,-9.324999809265137 0,-9.324999809265137 C0,-9.324999809265137 -2.7300000190734863,-2.7660000324249268 -2.7300000190734863,-2.7660000324249268 C-2.7300000190734863,-2.7660000324249268 -9.8100004196167,-2.2049999237060547 -9.8100004196167,-2.2049999237060547 C-9.8100004196167,-2.2049999237060547 -4.409999847412109,2.4149999618530273 -4.409999847412109,2.4149999618530273 C-4.409999847412109,2.4149999618530273 -6.059999942779541,9.324999809265137 -6.059999942779541,9.324999809265137z"></path></g><g opacity="1" transform="matrix(1,0,0,1,267.5150146484375,112.40599822998047)"><path fill="rgb(235,184,28)" fill-opacity="1" d=" M-6.065000057220459,9.324999809265137 C-6.065000057220459,9.324999809265137 -0.004999999888241291,5.625 -0.004999999888241291,5.625 C-0.004999999888241291,5.625 6.065000057220459,9.324999809265137 6.065000057220459,9.324999809265137 C6.065000057220459,9.324999809265137 4.414000034332275,2.4149999618530273 4.414000034332275,2.4149999618530273 C4.414000034332275,2.4149999618530273 9.805000305175781,-2.2049999237060547 9.805000305175781,-2.2049999237060547 C9.805000305175781,-2.2049999237060547 2.7249999046325684,-2.7660000324249268 2.7249999046325684,-2.7660000324249268 C2.7249999046325684,-2.7660000324249268 -0.004999999888241291,-9.324999809265137 -0.004999999888241291,-9.324999809265137 C-0.004999999888241291,-9.324999809265137 -2.7249999046325684,-2.7660000324249268 -2.7249999046325684,-2.7660000324249268 C-2.7249999046325684,-2.7660000324249268 -9.805000305175781,-2.2049999237060547 -9.805000305175781,-2.2049999237060547 C-9.805000305175781,-2.2049999237060547 -4.415999889373779,2.4149999618530273 -4.415999889373779,2.4149999618530273 C-4.415999889373779,2.4149999618530273 -6.065000057220459,9.324999809265137 -6.065000057220459,9.324999809265137z"></path></g><g opacity="1" transform="matrix(1,0,0,1,298.8800048828125,112.40599822998047)"><path fill="rgb(235,184,28)" fill-opacity="1" d=" M-6.059999942779541,9.324999809265137 C-6.059999942779541,9.324999809265137 0,5.625 0,5.625 C0,5.625 6.059999942779541,9.324999809265137 6.059999942779541,9.324999809265137 C6.059999942779541,9.324999809265137 4.409999847412109,2.4149999618530273 4.409999847412109,2.4149999618530273 C4.409999847412109,2.4149999618530273 9.8100004196167,-2.2049999237060547 9.8100004196167,-2.2049999237060547 C9.8100004196167,-2.2049999237060547 2.7300000190734863,-2.7660000324249268 2.7300000190734863,-2.7660000324249268 C2.7300000190734863,-2.7660000324249268 0,-9.324999809265137 0,-9.324999809265137 C0,-9.324999809265137 -2.7300000190734863,-2.7660000324249268 -2.7300000190734863,-2.7660000324249268 C-2.7300000190734863,-2.7660000324249268 -9.8100004196167,-2.2049999237060547 -9.8100004196167,-2.2049999237060547 C-9.8100004196167,-2.2049999237060547 -4.410999774932861,2.4149999618530273 -4.410999774932861,2.4149999618530273 C-4.410999774932861,2.4149999618530273 -6.059999942779541,9.324999809265137 -6.059999942779541,9.324999809265137z"></path></g><g opacity="1" transform="matrix(1,0,0,1,330.2449951171875,112.44999694824219)"><path fill="rgb(235,184,28)" fill-opacity="1" d=" M-6.065000057220459,9.329999923706055 C-6.065000057220459,9.329999923706055 -0.004999999888241291,5.619999885559082 -0.004999999888241291,5.619999885559082 C-0.004999999888241291,5.619999885559082 6.064000129699707,9.329999923706055 6.064000129699707,9.329999923706055 C6.064000129699707,9.329999923706055 4.40500020980835,2.4200000762939453 4.40500020980835,2.4200000762939453 C4.40500020980835,2.4200000762939453 9.805000305175781,-2.200000047683716 9.805000305175781,-2.200000047683716 C9.805000305175781,-2.200000047683716 2.7239999771118164,-2.7709999084472656 2.7239999771118164,-2.7709999084472656 C2.7239999771118164,-2.7709999084472656 -0.004999999888241291,-9.329999923706055 -0.004999999888241291,-9.329999923706055 C-0.004999999888241291,-9.329999923706055 -2.7249999046325684,-2.7709999084472656 -2.7249999046325684,-2.7709999084472656 C-2.7249999046325684,-2.7709999084472656 -9.805000305175781,-2.200000047683716 -9.805000305175781,-2.200000047683716 C-9.805000305175781,-2.200000047683716 -4.414999961853027,2.4200000762939453 -4.414999961853027,2.4200000762939453 C-4.414999961853027,2.4200000762939453 -6.065000057220459,9.329999923706055 -6.065000057220459,9.329999923706055z"></path></g><g opacity="1" transform="matrix(1,0,0,1,361.6099853515625,112.44999694824219)"><path fill="rgb(235,184,28)" fill-opacity="1" d=" M-6.059999942779541,9.329999923706055 C-6.059999942779541,9.329999923706055 0.0010000000474974513,5.619999885559082 0.0010000000474974513,5.619999885559082 C0.0010000000474974513,5.619999885559082 6.059999942779541,9.329999923706055 6.059999942779541,9.329999923706055 C6.059999942779541,9.329999923706055 4.409999847412109,2.4200000762939453 4.409999847412109,2.4200000762939453 C4.409999847412109,2.4200000762939453 9.8100004196167,-2.200000047683716 9.8100004196167,-2.200000047683716 C9.8100004196167,-2.200000047683716 2.7200000286102295,-2.7709999084472656 2.7200000286102295,-2.7709999084472656 C2.7200000286102295,-2.7709999084472656 0.0010000000474974513,-9.329999923706055 0.0010000000474974513,-9.329999923706055 C0.0010000000474974513,-9.329999923706055 -2.7300000190734863,-2.7709999084472656 -2.7300000190734863,-2.7709999084472656 C-2.7300000190734863,-2.7709999084472656 -9.8100004196167,-2.200000047683716 -9.8100004196167,-2.200000047683716 C-9.8100004196167,-2.200000047683716 -4.409999847412109,2.4200000762939453 -4.409999847412109,2.4200000762939453 C-4.409999847412109,2.4200000762939453 -6.059999942779541,9.329999923706055 -6.059999942779541,9.329999923706055z"></path></g><g opacity="1" transform="matrix(1,0,0,1,392.9750061035156,112.44999694824219)"><path fill="rgb(235,184,28)" fill-opacity="1" d=" M-6.065000057220459,9.329999923706055 C-6.065000057220459,9.329999923706055 -0.004999999888241291,5.619999885559082 -0.004999999888241291,5.619999885559082 C-0.004999999888241291,5.619999885559082 6.065000057220459,9.329999923706055 6.065000057220459,9.329999923706055 C6.065000057220459,9.329999923706055 4.40500020980835,2.4200000762939453 4.40500020980835,2.4200000762939453 C4.40500020980835,2.4200000762939453 9.805000305175781,-2.200000047683716 9.805000305175781,-2.200000047683716 C9.805000305175781,-2.200000047683716 2.7249999046325684,-2.7709999084472656 2.7249999046325684,-2.7709999084472656 C2.7249999046325684,-2.7709999084472656 -0.004999999888241291,-9.329999923706055 -0.004999999888241291,-9.329999923706055 C-0.004999999888241291,-9.329999923706055 -2.7249999046325684,-2.7709999084472656 -2.7249999046325684,-2.7709999084472656 C-2.7249999046325684,-2.7709999084472656 -9.805000305175781,-2.200000047683716 -9.805000305175781,-2.200000047683716 C-9.805000305175781,-2.200000047683716 -4.415999889373779,2.4200000762939453 -4.415999889373779,2.4200000762939453 C-4.415999889373779,2.4200000762939453 -6.065000057220459,9.329999923706055 -6.065000057220459,9.329999923706055z"></path></g><g opacity="1" transform="matrix(1,0,0,1,55.994998931884766,112.44999694824219)"><path fill="rgb(235,184,28)" fill-opacity="1" d=" M-33.334999084472656,-2.2699999809265137 C-33.334999084472656,-2.2699999809265137 33.334999084472656,-2.2699999809265137 33.334999084472656,-2.2699999809265137 C33.334999084472656,-2.2699999809265137 33.334999084472656,2.2699999809265137 33.334999084472656,2.2699999809265137 C33.334999084472656,2.2699999809265137 -33.334999084472656,2.2699999809265137 -33.334999084472656,2.2699999809265137 C-33.334999084472656,2.2699999809265137 -33.334999084472656,-2.2699999809265137 -33.334999084472656,-2.2699999809265137z"></path></g><g opacity="1" transform="matrix(1,0,0,1,449.18499755859375,112.44999694824219)"><path fill="rgb(235,184,28)" fill-opacity="1" d=" M-33.334999084472656,-2.2699999809265137 C-33.334999084472656,-2.2699999809265137 33.334999084472656,-2.2699999809265137 33.334999084472656,-2.2699999809265137 C33.334999084472656,-2.2699999809265137 33.334999084472656,2.2699999809265137 33.334999084472656,2.2699999809265137 C33.334999084472656,2.2699999809265137 -33.334999084472656,2.2699999809265137 -33.334999084472656,2.2699999809265137 C-33.334999084472656,2.2699999809265137 -33.334999084472656,-2.2699999809265137 -33.334999084472656,-2.2699999809265137z"></path></g><g opacity="1" transform="matrix(1,0,0,1,53.16999816894531,48.16999816894531)"><path fill="rgb(255,255,255)" fill-opacity="1" d=" M-9.170999526977539,-31.399999618530273 C-12.5649995803833,-31.395000457763672 -15.3149995803833,-28.643999099731445 -15.319999694824219,-25.25 C-15.319999694824219,-25.25 -15.319999694824219,-8.25 -15.319999694824219,-8.25 C-15.319999694824219,-8.25 19.57900047302246,-8.25 19.57900047302246,-8.25 C19.57900047302246,-8.25 19.57900047302246,8.279999732971191 19.57900047302246,8.279999732971191 C19.57900047302246,8.279999732971191 -23.040000915527344,8.279999732971191 -23.040000915527344,8.279999732971191 C-23.040000915527344,8.279999732971191 -15.289999961853027,12.149999618530273 -15.289999961853027,12.149999618530273 C-15.289999961853027,12.149999618530273 -15.289999961853027,25.25 -15.289999961853027,25.25 C-15.279000282287598,28.628999710083008 -12.548999786376953,31.368000030517578 -9.170999526977539,31.389999389648438 C-9.170999526977539,31.389999389648438 32.138999938964844,31.389999389648438 32.138999938964844,31.389999389648438 C32.138999938964844,31.389999389648438 32.138999938964844,47.959999084472656 32.138999938964844,47.959999084472656 C32.138999938964844,47.959999084472656 -13.491000175476074,47.959999084472656 -13.491000175476074,47.959999084472656 C-18.430999755859375,48.0369987487793 -23.18199920654297,46.06800079345703 -26.6200008392334,42.52000045776367 C-30.170000076293945,39.08300018310547 -32.13999938964844,34.33000183105469 -32.06100082397461,29.389999389648438 C-32.06100082397461,29.389999389648438 -32.06100082397461,-29.459999084472656 -32.06100082397461,-29.459999084472656 C-32.13800048828125,-34.38999938964844 -30.163999557495117,-39.13100051879883 -26.611000061035156,-42.54999923706055 C-23.16699981689453,-46.08000183105469 -18.422000885009766,-48.0369987487793 -13.491000175476074,-47.959999084472656 C-13.491000175476074,-47.959999084472656 32.138999938964844,-47.959999084472656 32.138999938964844,-47.959999084472656 C32.138999938964844,-47.959999084472656 32.138999938964844,-31.399999618530273 32.138999938964844,-31.399999618530273 C32.138999938964844,-31.399999618530273 -9.170999526977539,-31.399999618530273 -9.170999526977539,-31.399999618530273z"></path></g><g opacity="1" transform="matrix(1,0,0,1,122.61499786376953,61.76499938964844)"><path fill="rgb(255,255,255)" fill-opacity="1" d=" M-7.114999771118164,34.23500061035156 C-7.114999771118164,34.23500061035156 -25.684999465942383,34.23500061035156 -25.684999465942383,34.23500061035156 C-25.684999465942383,34.23500061035156 -25.684999465942383,-34.23500061035156 -25.684999465942383,-34.23500061035156 C-25.684999465942383,-34.23500061035156 -7.114999771118164,-34.23500061035156 -7.114999771118164,-34.23500061035156 C-7.114999771118164,-34.23500061035156 -7.114999771118164,17.235000610351562 -7.114999771118164,17.235000610351562 C-7.114999771118164,17.235000610351562 -14.114999771118164,20.645000457763672 -14.114999771118164,20.645000457763672 C-14.114999771118164,20.645000457763672 1.784999966621399,20.645000457763672 1.784999966621399,20.645000457763672 C4.730000019073486,20.634000778198242 7.113999843597412,18.25 7.125,15.305000305175781 C7.125,15.305000305175781 7.125,-34.23500061035156 7.125,-34.23500061035156 C7.125,-34.23500061035156 25.684999465942383,-34.23500061035156 25.684999465942383,-34.23500061035156 C25.684999465942383,-34.23500061035156 25.684999465942383,14.125 25.684999465942383,14.125 C25.673999786376953,25.226999282836914 16.677000045776367,34.2239990234375 5.574999809265137,34.23500061035156 C5.574999809265137,34.23500061035156 -7.114999771118164,34.23500061035156 -7.114999771118164,34.23500061035156z"></path></g><g opacity="1" transform="matrix(1,0,0,1,179.84800720214844,61.650001525878906)"><path fill="rgb(255,255,255)" fill-opacity="1" d=" M21.82200050354004,-20.56100082397461 C21.82200050354004,-20.56100082397461 2.0409998893737793,-20.56100082397461 2.0409998893737793,-20.56100082397461 C-0.7919999957084656,-20.56599998474121 -3.0940001010894775,-18.27400016784668 -3.0989999771118164,-15.440999984741211 C-3.0989999771118164,-15.440999984741211 -3.0989999771118164,-15.420999526977539 -3.0989999771118164,-15.420999526977539 C-3.0989999771118164,-15.420999526977539 -3.0989999771118164,34.349998474121094 -3.0989999771118164,34.349998474121094 C-3.0989999771118164,34.349998474121094 -21.73900032043457,34.349998474121094 -21.73900032043457,34.349998474121094 C-21.73900032043457,34.349998474121094 -21.73900032043457,-14.020999908447266 -21.73900032043457,-14.020999908447266 C-21.82200050354004,-19.391000747680664 -19.69099998474121,-24.55900001525879 -15.847999572753906,-28.31100082397461 C-12.102999687194824,-32.19499969482422 -6.914000034332275,-34.349998474121094 -1.5190000534057617,-34.26100158691406 C-1.5190000534057617,-34.26100158691406 21.791000366210938,-34.26100158691406 21.791000366210938,-34.26100158691406 C21.791000366210938,-34.26100158691406 21.82200050354004,-20.56100082397461 21.82200050354004,-20.56100082397461z"></path></g><g opacity="1" transform="matrix(1,0,0,1,233.50399780273438,61.6879997253418)"><path fill="rgb(255,255,255)" fill-opacity="1" d=" M-5.584000110626221,-34.29800033569336 C-5.584000110626221,-34.29800033569336 25.875,-34.29800033569336 25.875,-34.29800033569336 C25.875,-34.29800033569336 25.875,14.131999969482422 25.875,14.131999969482422 C25.908000946044922,25.277000427246094 16.900999069213867,34.3380012512207 5.75600004196167,34.37200164794922 C5.716000080108643,34.37300109863281 5.676000118255615,34.37300109863281 5.636000156402588,34.37200164794922 C5.636000156402588,34.37200164794922 -25.823999404907227,34.37200164794922 -25.823999404907227,34.37200164794922 C-25.823999404907227,34.37200164794922 -25.823999404907227,-13.98799991607666 -25.823999404907227,-13.98799991607666 C-25.908000946044922,-19.391000747680664 -23.7549991607666,-24.58799934387207 -19.874000549316406,-28.347999572753906 C-16.13599967956543,-32.21900177001953 -10.96399974822998,-34.37300109863281 -5.584000110626221,-34.29800033569336z M7.245999813079834,15.60200023651123 C7.245999813079834,15.60200023651123 7.245999813079834,-16.597999572753906 7.245999813079834,-16.597999572753906 C7.245999813079834,-16.597999572753906 15.395999908447266,-20.597999572753906 15.395999908447266,-20.597999572753906 C15.395999908447266,-20.597999572753906 -2.0439999103546143,-20.597999572753906 -2.0439999103546143,-20.597999572753906 C-3.4010000228881836,-20.607999801635742 -4.703999996185303,-20.066999435424805 -5.6539998054504395,-19.097999572753906 C-6.65500020980835,-18.155000686645508 -7.214000225067139,-16.833999633789062 -7.193999767303467,-15.458000183105469 C-7.193999767303467,-15.458000183105469 -7.193999767303467,20.742000579833984 -7.193999767303467,20.742000579833984 C-7.193999767303467,20.742000579833984 2.0859999656677246,20.742000579833984 2.0859999656677246,20.742000579833984 C3.4619998931884766,20.76300048828125 4.7829999923706055,20.20400047302246 5.72599983215332,19.20199966430664 C6.696000099182129,18.256000518798828 7.241000175476074,16.957000732421875 7.236000061035156,15.60200023651123 C7.236000061035156,15.60200023651123 7.245999813079834,15.60200023651123 7.245999813079834,15.60200023651123z"></path></g><g opacity="1" transform="matrix(1,0,0,1,295.9549865722656,61.83599853515625)"><path fill="rgb(255,255,255)" fill-opacity="1" d=" M7.973999977111816,17.165000915527344 C7.973999977111816,17.165000915527344 7.973999977111816,15.164999961853027 7.973999977111816,15.164999961853027 C7.99399995803833,13.434000015258789 7.264999866485596,11.779000282287598 5.973999977111816,10.625 C4.692999839782715,9.390999794006348 2.9730000495910645,8.718000411987305 1.1950000524520874,8.755000114440918 C1.1950000524520874,8.755000114440918 -6.085999965667725,8.755000114440918 -6.085999965667725,8.755000114440918 C-11.432000160217285,8.864999771118164 -16.604999542236328,6.855000019073486 -20.475000381469727,3.1649999618530273 C-24.312000274658203,-0.2919999957084656 -26.479000091552734,-5.23199987411499 -26.424999237060547,-10.395999908447266 C-26.424999237060547,-10.395999908447266 -26.424999237060547,-15.135000228881836 -26.424999237060547,-15.135000228881836 C-26.479000091552734,-20.298999786376953 -24.312000274658203,-25.238000869750977 -20.475000381469727,-28.69499969482422 C-16.597999572753906,-32.402000427246094 -11.409000396728516,-34.41999816894531 -6.046000003814697,-34.30500030517578 C-6.046000003814697,-34.30500030517578 26.413999557495117,-34.30500030517578 26.413999557495117,-34.30500030517578 C26.413999557495117,-34.30500030517578 26.413999557495117,-16.7450008392334 26.413999557495117,-16.7450008392334 C26.413999557495117,-16.7450008392334 -8.055000305175781,-16.7450008392334 -8.055000305175781,-16.7450008392334 C-8.055000305175781,-16.7450008392334 -8.055000305175781,-15.274999618530273 -8.055000305175781,-15.274999618530273 C-8.069999694824219,-13.562999725341797 -7.340000152587891,-11.928999900817871 -6.054999828338623,-10.795999526977539 C-4.760000228881836,-9.5649995803833 -3.0329999923706055,-8.892999649047852 -1.246000051498413,-8.925999641418457 C-1.246000051498413,-8.925999641418457 6.044000148773193,-8.925999641418457 6.044000148773193,-8.925999641418457 C11.411999702453613,-9.039999961853027 16.606000900268555,-7.010000228881836 20.474000930786133,-3.2860000133514404 C24.309999465942383,0.18400000035762787 26.47599983215332,5.131999969482422 26.423999786376953,10.305000305175781 C26.423999786376953,10.305000305175781 26.423999786376953,15.164999961853027 26.423999786376953,15.164999961853027 C26.47800064086914,20.32900047302246 24.31100082397461,25.26799964904785 20.474000930786133,28.725000381469727 C16.590999603271484,32.417999267578125 11.402000427246094,34.42100143432617 6.044000148773193,34.29499816894531 C6.044000148773193,34.29499816894531 -26.424999237060547,34.29499816894531 -26.424999237060547,34.29499816894531 C-26.424999237060547,34.29499816894531 -26.424999237060547,17.165000915527344 -26.424999237060547,17.165000915527344 C-26.424999237060547,17.165000915527344 7.973999977111816,17.165000915527344 7.973999977111816,17.165000915527344z"></path></g><g opacity="1" transform="matrix(1,0,0,1,356.1340026855469,61.6870002746582)"><path fill="rgb(255,255,255)" fill-opacity="1" d=" M-5.573999881744385,-34.297000885009766 C-5.573999881744385,-34.297000885009766 25.865999221801758,-34.297000885009766 25.865999221801758,-34.297000885009766 C25.865999221801758,-34.297000885009766 25.865999221801758,14.133000373840332 25.865999221801758,14.133000373840332 C25.899999618530273,25.277999877929688 16.892000198364258,34.3390007019043 5.745999813079834,34.37300109863281 C5.705999851226807,34.374000549316406 5.665999889373779,34.374000549316406 5.625999927520752,34.37300109863281 C5.625999927520752,34.37300109863281 -25.812999725341797,34.37300109863281 -25.812999725341797,34.37300109863281 C-25.812999725341797,34.37300109863281 -25.812999725341797,-13.987000465393066 -25.812999725341797,-13.987000465393066 C-25.899999618530273,-19.38800048828125 -23.750999450683594,-24.584999084472656 -19.874000549316406,-28.347000122070312 C-16.134000778198242,-32.22100067138672 -10.958000183105469,-34.374000549316406 -5.573999881744385,-34.297000885009766z M7.25600004196167,15.602999687194824 C7.25600004196167,15.602999687194824 7.25600004196167,-16.597000122070312 7.25600004196167,-16.597000122070312 C7.25600004196167,-16.597000122070312 15.406000137329102,-20.597000122070312 15.406000137329102,-20.597000122070312 C15.406000137329102,-20.597000122070312 -2.0339999198913574,-20.597000122070312 -2.0339999198913574,-20.597000122070312 C-3.390000104904175,-20.60700035095215 -4.693999767303467,-20.06599998474121 -5.64300012588501,-19.097000122070312 C-6.626999855041504,-18.145000457763672 -7.166999816894531,-16.825000762939453 -7.133999824523926,-15.456999778747559 C-7.133999824523926,-15.456999778747559 -7.133999824523926,20.743000030517578 -7.133999824523926,20.743000030517578 C-7.133999824523926,20.743000030517578 2.1470000743865967,20.743000030517578 2.1470000743865967,20.743000030517578 C3.5220000743865967,20.763999938964844 4.8429999351501465,20.204999923706055 5.785999774932861,19.202999114990234 C6.73799991607666,18.249000549316406 7.264999866485596,16.951000213623047 7.245999813079834,15.602999687194824 C7.245999813079834,15.602999687194824 7.25600004196167,15.602999687194824 7.25600004196167,15.602999687194824z"></path></g><g opacity="1" transform="matrix(1,0,0,1,413.9779968261719,48.16299819946289)"><path fill="rgb(255,255,255)" fill-opacity="1" d=" M-1.4980000257492065,-47.75299835205078 C-1.4980000257492065,-47.75299835205078 21.75200080871582,-47.75299835205078 21.75200080871582,-47.75299835205078 C21.75200080871582,-47.75299835205078 21.75200080871582,-34.16299819946289 21.75200080871582,-34.16299819946289 C21.75200080871582,-34.16299819946289 2.0220000743865967,-34.16299819946289 2.0220000743865967,-34.16299819946289 C0.6579999923706055,-34.189998626708984 -0.656000018119812,-33.659000396728516 -1.6180000305175781,-32.69300079345703 C-2.6019999980926514,-31.753000259399414 -3.1470000743865967,-30.44300079345703 -3.118000030517578,-29.08300018310547 C-3.118000030517578,-29.08300018310547 -3.118000030517578,-12.482999801635742 -3.118000030517578,-12.482999801635742 C-3.118000030517578,-12.482999801635742 -10.39799976348877,-8.942999839782715 -10.39799976348877,-8.942999839782715 C-10.39799976348877,-8.942999839782715 18.121000289916992,-8.942999839782715 18.121000289916992,-8.942999839782715 C18.121000289916992,-8.942999839782715 18.121000289916992,5.617000102996826 18.121000289916992,5.617000102996826 C18.121000289916992,5.617000102996826 -3.0989999771118164,5.617000102996826 -3.0989999771118164,5.617000102996826 C-3.0989999771118164,5.617000102996826 -3.0989999771118164,47.83700180053711 -3.0989999771118164,47.83700180053711 C-3.0989999771118164,47.83700180053711 -21.66900062561035,47.83700180053711 -21.66900062561035,47.83700180053711 C-21.66900062561035,47.83700180053711 -21.66900062561035,-27.58300018310547 -21.66900062561035,-27.58300018310547 C-21.75200080871582,-32.94900131225586 -19.613000869750977,-38.11000061035156 -15.758999824523926,-41.84299850463867 C-12.024999618530273,-45.698001861572266 -6.863999843597412,-47.83700180053711 -1.4980000257492065,-47.75299835205078z"></path></g><g opacity="1" transform="matrix(1,0,0,1,461.7019958496094,48.44200134277344)"><path fill="rgb(255,255,255)" fill-opacity="1" d=" M5.419000148773193,32.45800018310547 C5.419000148773193,32.45800018310547 20.577999114990234,32.45800018310547 20.577999114990234,32.45800018310547 C20.577999114990234,32.45800018310547 20.577999114990234,47.356998443603516 20.577999114990234,47.356998443603516 C20.577999114990234,47.356998443603516 1.2979999780654907,47.356998443603516 1.2979999780654907,47.356998443603516 C-4.514999866485596,47.44200134277344 -10.098999977111816,45.09299850463867 -14.102999687194824,40.87799835205078 C-18.273000717163086,36.757999420166016 -20.57900047302246,31.110000610351562 -20.48200035095215,25.246999740600586 C-20.48200035095215,25.246999740600586 -20.48200035095215,-47.44300079345703 -20.48200035095215,-47.44300079345703 C-20.48200035095215,-47.44300079345703 -0.3709999918937683,-47.44300079345703 -0.3709999918937683,-47.44300079345703 C-0.3709999918937683,-47.44300079345703 -0.3709999918937683,-20.652999877929688 -0.3709999918937683,-20.652999877929688 C-0.3709999918937683,-20.652999877929688 17.198999404907227,-20.652999877929688 17.198999404907227,-20.652999877929688 C17.198999404907227,-20.652999877929688 17.198999404907227,-4.6529998779296875 17.198999404907227,-4.6529998779296875 C17.198999404907227,-4.6529998779296875 -0.3919999897480011,-4.6529998779296875 -0.3919999897480011,-4.6529998779296875 C-0.3919999897480011,-4.6529998779296875 -0.3919999897480011,26.558000564575195 -0.3919999897480011,26.558000564575195 C-0.41100001335144043,28.11199951171875 0.20200000703334808,29.60700035095215 1.309000015258789,30.697999954223633 C2.371000051498413,31.836000442504883 3.861999988555908,32.474998474121094 5.419000148773193,32.45800018310547z"></path></g></g><g fill="rgb(255,255,255)" font-size="20" font-family="Tahoma" font-style="normal" font-weight="700" aria-label="WELCOME" transform="matrix(1,0,0,1,-58.25,22.25)" opacity="1" style="display: none;"><path stroke-linecap="butt" stroke-linejoin="round" stroke-miterlimit="4" d=" M-35.04,-14.54 C-35.04,-14.54 -37.15,-4.79 -37.15,-4.79 C-37.15,-4.79 -39.46,-14.54 -39.46,-14.54 C-39.46,-14.54 -43.09,-14.54 -43.09,-14.54 C-43.09,-14.54 -45.53,-4.79 -45.53,-4.79 C-45.53,-4.79 -47.53,-14.54 -47.53,-14.54 C-47.53,-14.54 -51.32,-14.54 -51.32,-14.54 C-51.32,-14.54 -47.64,0 -47.64,0 C-47.64,0 -43.63,0 -43.63,0 C-43.63,0 -41.37,-8.99 -41.37,-8.99 C-41.37,-8.99 -39.03,0 -39.03,0 C-39.03,0 -35.03,0 -35.03,0 C-35.03,0 -31.35,-14.54 -31.35,-14.54 C-31.35,-14.54 -35.04,-14.54 -35.04,-14.54z M-19.72,0 C-19.72,0 -19.72,-2.77 -19.72,-2.77 C-19.72,-2.77 -25.92,-2.77 -25.92,-2.77 C-25.92,-2.77 -25.92,-6.45 -25.92,-6.45 C-25.92,-6.45 -20.21,-6.45 -20.21,-6.45 C-20.21,-6.45 -20.21,-9.22 -20.21,-9.22 C-20.21,-9.22 -25.92,-9.22 -25.92,-9.22 C-25.92,-9.22 -25.92,-11.77 -25.92,-11.77 C-25.92,-11.77 -19.72,-11.77 -19.72,-11.77 C-19.72,-11.77 -19.72,-14.54 -19.72,-14.54 C-19.72,-14.54 -29.55,-14.54 -29.55,-14.54 C-29.55,-14.54 -29.55,0 -29.55,0 C-29.55,0 -19.72,0 -19.72,0z M-7.54,-2.77 C-7.54,-2.77 -13.59,-2.77 -13.59,-2.77 C-13.59,-2.77 -13.59,-14.54 -13.59,-14.54 C-13.59,-14.54 -17.25,-14.54 -17.25,-14.54 C-17.25,-14.54 -17.25,0 -17.25,0 C-17.25,0 -7.54,0 -7.54,0 C-7.54,0 -7.54,-2.77 -7.54,-2.77z M2.11,0.18 C2.51,0.1 2.93,0 3.39,-0.14 C3.76,-0.25 4.12,-0.38 4.47,-0.54 C4.82,-0.7 5.13,-0.84 5.4,-0.97 C5.4,-0.97 5.4,-4.38 5.4,-4.38 C5.4,-4.38 5.07,-4.38 5.07,-4.38 C4.89,-4.22 4.67,-4.04 4.42,-3.83 C4.18,-3.62 3.89,-3.41 3.56,-3.21 C3.26,-3.02 2.9,-2.84 2.46,-2.68 C2.02,-2.52 1.57,-2.44 1.08,-2.44 C0.62,-2.44 0.16,-2.52 -0.31,-2.69 C-0.77,-2.85 -1.19,-3.11 -1.57,-3.48 C-1.96,-3.85 -2.28,-4.35 -2.52,-4.97 C-2.76,-5.58 -2.88,-6.34 -2.88,-7.25 C-2.88,-8.11 -2.77,-8.85 -2.53,-9.48 C-2.3,-10.11 -2.01,-10.62 -1.64,-10.99 C-1.24,-11.4 -0.83,-11.68 -0.39,-11.85 C0.05,-12.02 0.54,-12.1 1.06,-12.1 C1.51,-12.1 1.93,-12.03 2.34,-11.88 C2.75,-11.73 3.12,-11.56 3.46,-11.35 C3.8,-11.14 4.1,-10.93 4.37,-10.71 C4.63,-10.49 4.85,-10.3 5.03,-10.15 C5.03,-10.15 5.4,-10.15 5.4,-10.15 C5.4,-10.15 5.4,-13.61 5.4,-13.61 C5.16,-13.74 4.84,-13.88 4.45,-14.05 C4.06,-14.22 3.7,-14.36 3.37,-14.45 C2.95,-14.57 2.5,-14.66 2.04,-14.73 C1.58,-14.79 1.06,-14.82 0.48,-14.82 C-1.7,-14.82 -3.44,-14.14 -4.72,-12.77 C-6.01,-11.4 -6.65,-9.56 -6.65,-7.26 C-6.65,-4.87 -6.01,-3.01 -4.73,-1.69 C-3.44,-0.38 -1.71,0.28 0.47,0.28 C1.17,0.28 1.71,0.25 2.11,0.18z M18.91,-12.82 C17.65,-14.17 15.93,-14.84 13.74,-14.84 C11.55,-14.84 9.82,-14.17 8.57,-12.81 C7.32,-11.45 6.7,-9.6 6.7,-7.27 C6.7,-4.95 7.32,-3.11 8.57,-1.74 C9.82,-0.38 11.55,0.3 13.74,0.3 C15.93,0.3 17.65,-0.37 18.91,-1.72 C20.16,-3.07 20.79,-4.92 20.79,-7.27 C20.79,-9.62 20.16,-11.47 18.91,-12.82z M16.77,-5.06 C16.6,-4.5 16.36,-4.01 16.05,-3.58 C15.75,-3.19 15.4,-2.91 15,-2.72 C14.6,-2.53 14.18,-2.44 13.75,-2.44 C13.33,-2.44 12.92,-2.53 12.52,-2.7 C12.12,-2.87 11.77,-3.16 11.46,-3.56 C11.15,-3.96 10.91,-4.45 10.73,-5.04 C10.56,-5.63 10.47,-6.37 10.47,-7.27 C10.47,-8.13 10.56,-8.88 10.75,-9.5 C10.93,-10.13 11.18,-10.63 11.47,-11.01 C11.81,-11.42 12.16,-11.7 12.53,-11.86 C12.89,-12.02 13.3,-12.1 13.75,-12.1 C14.17,-12.1 14.58,-12.01 14.98,-11.84 C15.37,-11.67 15.72,-11.38 16.04,-10.99 C16.33,-10.6 16.57,-10.1 16.75,-9.49 C16.93,-8.88 17.02,-8.14 17.02,-7.28 C17.02,-6.36 16.94,-5.63 16.77,-5.06z M37.8,-14.54 C37.8,-14.54 33.59,-14.54 33.59,-14.54 C33.59,-14.54 30.38,-7.36 30.38,-7.36 C30.38,-7.36 27.16,-14.54 27.16,-14.54 C27.16,-14.54 22.95,-14.54 22.95,-14.54 C22.95,-14.54 22.95,0 22.95,0 C22.95,0 26.39,0 26.39,0 C26.39,0 26.39,-9.64 26.39,-9.64 C26.39,-9.64 29.03,-3.42 29.03,-3.42 C29.03,-3.42 31.52,-3.42 31.52,-3.42 C31.52,-3.42 34.17,-9.64 34.17,-9.64 C34.17,-9.64 34.17,0 34.17,0 C34.17,0 37.8,0 37.8,0 C37.8,0 37.8,-14.54 37.8,-14.54z M50.64,0 C50.64,0 50.64,-2.77 50.64,-2.77 C50.64,-2.77 44.44,-2.77 44.44,-2.77 C44.44,-2.77 44.44,-6.45 44.44,-6.45 C44.44,-6.45 50.16,-6.45 50.16,-6.45 C50.16,-6.45 50.16,-9.22 50.16,-9.22 C50.16,-9.22 44.44,-9.22 44.44,-9.22 C44.44,-9.22 44.44,-11.77 44.44,-11.77 C44.44,-11.77 50.64,-11.77 50.64,-11.77 C50.64,-11.77 50.64,-14.54 50.64,-14.54 C50.64,-14.54 40.81,-14.54 40.81,-14.54 C40.81,-14.54 40.81,0 40.81,0 C40.81,0 50.64,0 50.64,0z" style="display: inherit;"></path></g><g fill="rgb(255,255,255)" font-size="20" font-family="Tahoma" font-style="normal" font-weight="700" aria-label="TO" transform="matrix(1,0,0,1,140.73287963867188,22.25)" opacity="1" style="display: none;"><path stroke-linecap="butt" stroke-linejoin="round" stroke-miterlimit="4" d=" M-5.87,0 C-5.87,0 -5.87,-11.77 -5.87,-11.77 C-5.87,-11.77 -1.58,-11.77 -1.58,-11.77 C-1.58,-11.77 -1.58,-14.54 -1.58,-14.54 C-1.58,-14.54 -13.82,-14.54 -13.82,-14.54 C-13.82,-14.54 -13.82,-11.77 -13.82,-11.77 C-13.82,-11.77 -9.53,-11.77 -9.53,-11.77 C-9.53,-11.77 -9.53,0 -9.53,0 C-9.53,0 -5.87,0 -5.87,0z M11.28,-12.82 C10.03,-14.17 8.31,-14.84 6.12,-14.84 C3.92,-14.84 2.2,-14.17 0.95,-12.81 C-0.3,-11.45 -0.92,-9.6 -0.92,-7.27 C-0.92,-4.95 -0.3,-3.11 0.95,-1.74 C2.2,-0.38 3.92,0.3 6.12,0.3 C8.31,0.3 10.03,-0.37 11.28,-1.72 C12.54,-3.07 13.17,-4.92 13.17,-7.27 C13.17,-9.62 12.54,-11.47 11.28,-12.82z M9.15,-5.06 C8.98,-4.5 8.74,-4.01 8.42,-3.58 C8.13,-3.19 7.78,-2.91 7.38,-2.72 C6.97,-2.53 6.56,-2.44 6.13,-2.44 C5.7,-2.44 5.29,-2.53 4.9,-2.7 C4.5,-2.87 4.15,-3.16 3.83,-3.56 C3.53,-3.96 3.29,-4.45 3.11,-5.04 C2.93,-5.63 2.85,-6.37 2.85,-7.27 C2.85,-8.13 2.94,-8.88 3.13,-9.5 C3.31,-10.13 3.55,-10.63 3.85,-11.01 C4.19,-11.42 4.54,-11.7 4.91,-11.86 C5.27,-12.02 5.68,-12.1 6.13,-12.1 C6.55,-12.1 6.96,-12.01 7.35,-11.84 C7.75,-11.67 8.1,-11.38 8.41,-10.99 C8.71,-10.6 8.95,-10.1 9.13,-9.49 C9.31,-8.88 9.4,-8.14 9.4,-7.28 C9.4,-6.36 9.31,-5.63 9.15,-5.06z" style="display: inherit;"></path></g><g fill="rgb(255,255,255)" font-size="16" font-family="Tahoma" font-style="normal" font-weight="700" aria-label="INNOVATIVE" transform="matrix(1,0,0,1,54.75,61.25)" opacity="1" style="display: block;"><path stroke-linecap="butt" stroke-linejoin="round" stroke-miterlimit="4" d=" M-45.32,-2.03 C-45.32,-2.03 -46.99,-2.03 -46.99,-2.03 C-46.99,-2.03 -46.99,-9.6 -46.99,-9.6 C-46.99,-9.6 -45.32,-9.6 -45.32,-9.6 C-45.32,-9.6 -45.32,-11.63 -45.32,-11.63 C-45.32,-11.63 -51.58,-11.63 -51.58,-11.63 C-51.58,-11.63 -51.58,-9.6 -51.58,-9.6 C-51.58,-9.6 -49.91,-9.6 -49.91,-9.6 C-49.91,-9.6 -49.91,-2.03 -49.91,-2.03 C-49.91,-2.03 -51.58,-2.03 -51.58,-2.03 C-51.58,-2.03 -51.58,0 -51.58,0 C-51.58,0 -45.32,0 -45.32,0 C-45.32,0 -45.32,-2.03 -45.32,-2.03z M-33.41,-11.63 C-33.41,-11.63 -36.08,-11.63 -36.08,-11.63 C-36.08,-11.63 -36.08,-4.97 -36.08,-4.97 C-36.08,-4.97 -39.79,-11.63 -39.79,-11.63 C-39.79,-11.63 -43.38,-11.63 -43.38,-11.63 C-43.38,-11.63 -43.38,0 -43.38,0 C-43.38,0 -40.71,0 -40.71,0 C-40.71,0 -40.71,-8.11 -40.71,-8.11 C-40.71,-8.11 -36.22,0 -36.22,0 C-36.22,0 -33.41,0 -33.41,0 C-33.41,0 -33.41,-11.63 -33.41,-11.63z M-21.08,-11.63 C-21.08,-11.63 -23.75,-11.63 -23.75,-11.63 C-23.75,-11.63 -23.75,-4.97 -23.75,-4.97 C-23.75,-4.97 -27.46,-11.63 -27.46,-11.63 C-27.46,-11.63 -31.05,-11.63 -31.05,-11.63 C-31.05,-11.63 -31.05,0 -31.05,0 C-31.05,0 -28.38,0 -28.38,0 C-28.38,0 -28.38,-8.11 -28.38,-8.11 C-28.38,-8.11 -23.89,0 -23.89,0 C-23.89,0 -21.08,0 -21.08,0 C-21.08,0 -21.08,-11.63 -21.08,-11.63z M-9.64,-10.25 C-10.64,-11.33 -12.02,-11.88 -13.77,-11.88 C-15.52,-11.88 -16.9,-11.33 -17.9,-10.25 C-18.9,-9.16 -19.4,-7.68 -19.4,-5.81 C-19.4,-3.96 -18.9,-2.49 -17.9,-1.39 C-16.9,-0.3 -15.52,0.24 -13.77,0.24 C-12.02,0.24 -10.64,-0.3 -9.64,-1.38 C-8.63,-2.45 -8.13,-3.93 -8.13,-5.81 C-8.13,-7.69 -8.63,-9.17 -9.64,-10.25z M-11.35,-4.05 C-11.48,-3.6 -11.68,-3.21 -11.93,-2.87 C-12.16,-2.55 -12.44,-2.32 -12.76,-2.18 C-13.08,-2.03 -13.42,-1.95 -13.76,-1.95 C-14.1,-1.95 -14.43,-2.02 -14.75,-2.16 C-15.06,-2.3 -15.35,-2.53 -15.6,-2.85 C-15.84,-3.17 -16.03,-3.56 -16.18,-4.04 C-16.32,-4.51 -16.39,-5.1 -16.39,-5.81 C-16.39,-6.51 -16.31,-7.1 -16.16,-7.6 C-16.02,-8.1 -15.82,-8.5 -15.58,-8.8 C-15.31,-9.13 -15.03,-9.36 -14.74,-9.49 C-14.45,-9.62 -14.12,-9.68 -13.76,-9.68 C-13.42,-9.68 -13.1,-9.61 -12.78,-9.47 C-12.47,-9.33 -12.18,-9.11 -11.93,-8.79 C-11.69,-8.48 -11.5,-8.08 -11.36,-7.59 C-11.22,-7.1 -11.14,-6.51 -11.14,-5.82 C-11.14,-5.09 -11.21,-4.5 -11.35,-4.05z M0.36,-11.63 C0.36,-11.63 -2.17,-3.75 -2.17,-3.75 C-2.17,-3.75 -4.7,-11.63 -4.7,-11.63 C-4.7,-11.63 -7.73,-11.63 -7.73,-11.63 C-7.73,-11.63 -3.73,0 -3.73,0 C-3.73,0 -0.68,0 -0.68,0 C-0.68,0 3.32,-11.63 3.32,-11.63 C3.32,-11.63 0.36,-11.63 0.36,-11.63z M6.07,0 C6.07,0 6.8,-2.38 6.8,-2.38 C6.8,-2.38 10.46,-2.38 10.46,-2.38 C10.46,-2.38 11.18,0 11.18,0 C11.18,0 14.19,0 14.19,0 C14.19,0 10.26,-11.63 10.26,-11.63 C10.26,-11.63 7.07,-11.63 7.07,-11.63 C7.07,-11.63 3.14,0 3.14,0 C3.14,0 6.07,0 6.07,0z M7.44,-4.48 C7.44,-4.48 8.63,-8.32 8.63,-8.32 C8.63,-8.32 9.82,-4.48 9.82,-4.48 C9.82,-4.48 7.44,-4.48 7.44,-4.48z M20.5,0 C20.5,0 20.5,-9.41 20.5,-9.41 C20.5,-9.41 23.94,-9.41 23.94,-9.41 C23.94,-9.41 23.94,-11.63 23.94,-11.63 C23.94,-11.63 14.14,-11.63 14.14,-11.63 C14.14,-11.63 14.14,-9.41 14.14,-9.41 C14.14,-9.41 17.58,-9.41 17.58,-9.41 C17.58,-9.41 17.58,0 17.58,0 C17.58,0 20.5,0 20.5,0z M30.94,-2.03 C30.94,-2.03 29.27,-2.03 29.27,-2.03 C29.27,-2.03 29.27,-9.6 29.27,-9.6 C29.27,-9.6 30.94,-9.6 30.94,-9.6 C30.94,-9.6 30.94,-11.63 30.94,-11.63 C30.94,-11.63 24.68,-11.63 24.68,-11.63 C24.68,-11.63 24.68,-9.6 24.68,-9.6 C24.68,-9.6 26.35,-9.6 26.35,-9.6 C26.35,-9.6 26.35,-2.03 26.35,-2.03 C26.35,-2.03 24.68,-2.03 24.68,-2.03 C24.68,-2.03 24.68,0 24.68,0 C24.68,0 30.94,0 30.94,0 C30.94,0 30.94,-2.03 30.94,-2.03z M39.64,-11.63 C39.64,-11.63 37.11,-3.75 37.11,-3.75 C37.11,-3.75 34.58,-11.63 34.58,-11.63 C34.58,-11.63 31.55,-11.63 31.55,-11.63 C31.55,-11.63 35.55,0 35.55,0 C35.55,0 38.6,0 38.6,0 C38.6,0 42.6,-11.63 42.6,-11.63 C42.6,-11.63 39.64,-11.63 39.64,-11.63z M51.54,0 C51.54,0 51.54,-2.22 51.54,-2.22 C51.54,-2.22 46.58,-2.22 46.58,-2.22 C46.58,-2.22 46.58,-5.16 46.58,-5.16 C46.58,-5.16 51.15,-5.16 51.15,-5.16 C51.15,-5.16 51.15,-7.38 51.15,-7.38 C51.15,-7.38 46.58,-7.38 46.58,-7.38 C46.58,-7.38 46.58,-9.41 46.58,-9.41 C46.58,-9.41 51.54,-9.41 51.54,-9.41 C51.54,-9.41 51.54,-11.63 51.54,-11.63 C51.54,-11.63 43.68,-11.63 43.68,-11.63 C43.68,-11.63 43.68,0 43.68,0 C43.68,0 51.54,0 51.54,0z" style="display: inherit;"></path></g><g fill="rgb(255,255,255)" font-size="16" font-family="Tahoma" font-style="normal" font-weight="700" aria-label="IT COMPANY" transform="matrix(1,0,0,1,54.75,61.25)" opacity="1" style="display: block;"><path stroke-linecap="butt" stroke-linejoin="round" stroke-miterlimit="4" d=" M-45.02,-2.03 C-45.02,-2.03 -46.69,-2.03 -46.69,-2.03 C-46.69,-2.03 -46.69,-9.6 -46.69,-9.6 C-46.69,-9.6 -45.02,-9.6 -45.02,-9.6 C-45.02,-9.6 -45.02,-11.63 -45.02,-11.63 C-45.02,-11.63 -51.28,-11.63 -51.28,-11.63 C-51.28,-11.63 -51.28,-9.6 -51.28,-9.6 C-51.28,-9.6 -49.61,-9.6 -49.61,-9.6 C-49.61,-9.6 -49.61,-2.03 -49.61,-2.03 C-49.61,-2.03 -51.28,-2.03 -51.28,-2.03 C-51.28,-2.03 -51.28,0 -51.28,0 C-51.28,0 -45.02,0 -45.02,0 C-45.02,0 -45.02,-2.03 -45.02,-2.03z M-37.92,0 C-37.92,0 -37.92,-9.41 -37.92,-9.41 C-37.92,-9.41 -34.48,-9.41 -34.48,-9.41 C-34.48,-9.41 -34.48,-11.63 -34.48,-11.63 C-34.48,-11.63 -44.28,-11.63 -44.28,-11.63 C-44.28,-11.63 -44.28,-9.41 -44.28,-9.41 C-44.28,-9.41 -40.84,-9.41 -40.84,-9.41 C-40.84,-9.41 -40.84,0 -40.84,0 C-40.84,0 -37.92,0 -37.92,0z M-22.27,0.14 C-21.95,0.08 -21.61,0 -21.24,-0.11 C-20.95,-0.2 -20.66,-0.31 -20.37,-0.43 C-20.09,-0.56 -19.85,-0.67 -19.63,-0.77 C-19.63,-0.77 -19.63,-3.51 -19.63,-3.51 C-19.63,-3.51 -19.9,-3.51 -19.9,-3.51 C-20.04,-3.38 -20.22,-3.23 -20.41,-3.06 C-20.61,-2.9 -20.84,-2.73 -21.1,-2.57 C-21.34,-2.41 -21.64,-2.27 -21.98,-2.14 C-22.33,-2.02 -22.7,-1.95 -23.09,-1.95 C-23.46,-1.95 -23.83,-2.02 -24.2,-2.15 C-24.57,-2.28 -24.91,-2.49 -25.21,-2.78 C-25.52,-3.08 -25.78,-3.48 -25.97,-3.97 C-26.16,-4.46 -26.26,-5.07 -26.26,-5.8 C-26.26,-6.48 -26.17,-7.08 -25.98,-7.59 C-25.8,-8.09 -25.56,-8.49 -25.27,-8.79 C-24.95,-9.12 -24.61,-9.35 -24.26,-9.48 C-23.91,-9.61 -23.52,-9.68 -23.1,-9.68 C-22.75,-9.68 -22.41,-9.62 -22.08,-9.5 C-21.76,-9.39 -21.46,-9.24 -21.19,-9.08 C-20.92,-8.91 -20.67,-8.74 -20.46,-8.57 C-20.25,-8.39 -20.07,-8.24 -19.93,-8.12 C-19.93,-8.12 -19.63,-8.12 -19.63,-8.12 C-19.63,-8.12 -19.63,-10.89 -19.63,-10.89 C-19.83,-10.99 -20.08,-11.11 -20.39,-11.24 C-20.7,-11.38 -20.99,-11.48 -21.26,-11.56 C-21.6,-11.66 -21.95,-11.73 -22.32,-11.78 C-22.69,-11.83 -23.11,-11.86 -23.57,-11.86 C-25.32,-11.86 -26.7,-11.31 -27.73,-10.21 C-28.76,-9.12 -29.27,-7.65 -29.27,-5.8 C-29.27,-3.89 -28.76,-2.41 -27.73,-1.36 C-26.71,-0.3 -25.32,0.23 -23.58,0.23 C-23.02,0.23 -22.58,0.2 -22.27,0.14z M-8.83,-10.25 C-9.83,-11.33 -11.21,-11.88 -12.96,-11.88 C-14.72,-11.88 -16.09,-11.33 -17.09,-10.25 C-18.09,-9.16 -18.59,-7.68 -18.59,-5.81 C-18.59,-3.96 -18.09,-2.49 -17.09,-1.39 C-16.09,-0.3 -14.72,0.24 -12.96,0.24 C-11.21,0.24 -9.83,-0.3 -8.83,-1.38 C-7.82,-2.45 -7.32,-3.93 -7.32,-5.81 C-7.32,-7.69 -7.82,-9.17 -8.83,-10.25z M-10.54,-4.05 C-10.67,-3.6 -10.87,-3.21 -11.12,-2.87 C-11.35,-2.55 -11.63,-2.32 -11.95,-2.18 C-12.28,-2.03 -12.61,-1.95 -12.95,-1.95 C-13.29,-1.95 -13.62,-2.02 -13.94,-2.16 C-14.25,-2.3 -14.54,-2.53 -14.79,-2.85 C-15.03,-3.17 -15.23,-3.56 -15.37,-4.04 C-15.51,-4.51 -15.58,-5.1 -15.58,-5.81 C-15.58,-6.51 -15.5,-7.1 -15.36,-7.6 C-15.21,-8.1 -15.01,-8.5 -14.77,-8.8 C-14.5,-9.13 -14.22,-9.36 -13.93,-9.49 C-13.64,-9.62 -13.31,-9.68 -12.95,-9.68 C-12.61,-9.68 -12.29,-9.61 -11.97,-9.47 C-11.66,-9.33 -11.37,-9.11 -11.12,-8.79 C-10.89,-8.48 -10.69,-8.08 -10.55,-7.59 C-10.41,-7.1 -10.34,-6.51 -10.34,-5.82 C-10.34,-5.09 -10.4,-4.5 -10.54,-4.05z M6.29,-11.63 C6.29,-11.63 2.92,-11.63 2.92,-11.63 C2.92,-11.63 0.35,-5.89 0.35,-5.89 C0.35,-5.89 -2.23,-11.63 -2.23,-11.63 C-2.23,-11.63 -5.59,-11.63 -5.59,-11.63 C-5.59,-11.63 -5.59,0 -5.59,0 C-5.59,0 -2.84,0 -2.84,0 C-2.84,0 -2.84,-7.71 -2.84,-7.71 C-2.84,-7.71 -0.73,-2.73 -0.73,-2.73 C-0.73,-2.73 1.27,-2.73 1.27,-2.73 C1.27,-2.73 3.38,-7.71 3.38,-7.71 C3.38,-7.71 3.38,0 3.38,0 C3.38,0 6.29,0 6.29,0 C6.29,0 6.29,-11.63 6.29,-11.63z M17.29,-9.7 C17.05,-10.19 16.71,-10.58 16.27,-10.87 C15.88,-11.13 15.44,-11.33 14.95,-11.45 C14.46,-11.57 13.88,-11.63 13.21,-11.63 C13.21,-11.63 8.7,-11.63 8.7,-11.63 C8.7,-11.63 8.7,0 8.7,0 C8.7,0 11.62,0 11.62,0 C11.62,0 11.62,-3.8 11.62,-3.8 C11.62,-3.8 13.15,-3.8 13.15,-3.8 C13.57,-3.8 13.94,-3.84 14.28,-3.91 C14.61,-3.97 14.92,-4.07 15.21,-4.19 C15.5,-4.31 15.76,-4.45 16,-4.62 C16.23,-4.8 16.45,-4.98 16.65,-5.19 C16.97,-5.52 17.22,-5.92 17.39,-6.41 C17.56,-6.9 17.65,-7.42 17.65,-7.96 C17.65,-8.63 17.53,-9.21 17.29,-9.7z M14.54,-7.05 C14.47,-6.84 14.34,-6.64 14.14,-6.45 C14.05,-6.35 13.91,-6.27 13.74,-6.19 C13.56,-6.12 13.4,-6.07 13.24,-6.04 C13.06,-6.01 12.85,-5.99 12.6,-5.98 C12.36,-5.98 12.1,-5.98 11.82,-5.98 C11.82,-5.98 11.62,-5.98 11.62,-5.98 C11.62,-5.98 11.62,-9.46 11.62,-9.46 C11.62,-9.46 12.03,-9.46 12.03,-9.46 C12.46,-9.46 12.81,-9.45 13.06,-9.43 C13.31,-9.42 13.58,-9.35 13.85,-9.23 C14.07,-9.14 14.26,-8.98 14.41,-8.74 C14.57,-8.5 14.65,-8.22 14.65,-7.89 C14.65,-7.54 14.61,-7.26 14.54,-7.05z M20.89,0 C20.89,0 21.62,-2.38 21.62,-2.38 C21.62,-2.38 25.27,-2.38 25.27,-2.38 C25.27,-2.38 26,0 26,0 C26,0 29.01,0 29.01,0 C29.01,0 25.08,-11.63 25.08,-11.63 C25.08,-11.63 21.89,-11.63 21.89,-11.63 C21.89,-11.63 17.96,0 17.96,0 C17.96,0 20.89,0 20.89,0z M22.26,-4.48 C22.26,-4.48 23.45,-8.32 23.45,-8.32 C23.45,-8.32 24.63,-4.48 24.63,-4.48 C24.63,-4.48 22.26,-4.48 22.26,-4.48z M40.13,-11.63 C40.13,-11.63 37.46,-11.63 37.46,-11.63 C37.46,-11.63 37.46,-4.97 37.46,-4.97 C37.46,-4.97 33.75,-11.63 33.75,-11.63 C33.75,-11.63 30.16,-11.63 30.16,-11.63 C30.16,-11.63 30.16,0 30.16,0 C30.16,0 32.84,0 32.84,0 C32.84,0 32.84,-8.11 32.84,-8.11 C32.84,-8.11 37.32,0 37.32,0 C37.32,0 40.13,0 40.13,0 C40.13,0 40.13,-11.63 40.13,-11.63z M48.95,-11.63 C48.95,-11.63 46.75,-7.48 46.75,-7.48 C46.75,-7.48 44.47,-11.63 44.47,-11.63 C44.47,-11.63 41.14,-11.63 41.14,-11.63 C41.14,-11.63 45.23,-4.71 45.23,-4.71 C45.23,-4.71 45.23,0 45.23,0 C45.23,0 48.15,0 48.15,0 C48.15,0 48.15,-4.86 48.15,-4.86 C48.15,-4.86 52.16,-11.63 52.16,-11.63 C52.16,-11.63 48.95,-11.63 48.95,-11.63z" style="display: inherit;"></path></g></g></g></g></svg>