<svg width="8" height="9" viewBox="0 0 8 9" fill="none" xmlns="http://www.w3.org/2000/svg">
<g style="mix-blend-mode:lighten">
<path d="M5.97286 6.56624C5.59259 6.94651 5.10814 7.20552 4.58078 7.31052C4.05342 7.41552 3.50683 7.3618 3.01013 7.15614C2.51343 6.95048 2.08892 6.60213 1.7903 6.15513C1.49168 5.70814 1.33236 5.18259 1.33247 4.64492C1.33258 4.10725 1.49212 3.58162 1.79093 3.1345C2.08973 2.68738 2.51437 2.33885 3.01115 2.13299C3.50794 1.92713 4.05455 1.87319 4.58187 1.97797C5.10919 2.08276 5.59353 2.34158 5.97365 2.72169C6.48336 3.23141 6.76963 3.92281 6.76949 4.64381C6.76934 5.3648 6.48278 6.05632 5.97286 6.56624V6.56624Z" fill="#D4088C"/>
</g>
</svg>
