<svg width="100" height="100" viewBox="0 0 100 100" fill="none" xmlns="http://www.w3.org/2000/svg">
<path d="M92.1875 21.875H81.25V7.8125C81.2463 6.57044 80.7512 5.38031 79.873 4.50203C78.9947 3.62376 77.8046 3.12871 76.5625 3.125H23.4375C22.1954 3.12871 21.0053 3.62376 20.127 4.50203C19.2488 5.38031 18.7537 6.57044 18.75 7.8125V21.875H7.8125C6.57044 21.8787 5.38031 22.3738 4.50203 23.252C3.62376 24.1303 3.12871 25.3204 3.125 26.5625V76.5625C3.12871 77.8046 3.62376 78.9947 4.50203 79.873C5.38031 80.7512 6.57044 81.2463 7.8125 81.25H38.7812L37.7344 87.5H32.8125C32.5702 87.5017 32.3316 87.5589 32.1149 87.6672C31.8982 87.7756 31.7092 87.9322 31.5625 88.125L26.875 94.375C26.7012 94.6083 26.5959 94.8854 26.571 95.1753C26.5462 95.4651 26.6028 95.7562 26.7344 96.0156C26.8609 96.276 27.0587 96.495 27.305 96.6471C27.5512 96.7993 27.8356 96.8783 28.125 96.875H71.875C72.1644 96.8783 72.4488 96.7993 72.695 96.6471C72.9413 96.495 73.1391 96.276 73.2656 96.0156C73.3972 95.7562 73.4538 95.4651 73.429 95.1753C73.4041 94.8854 73.2989 94.6083 73.125 94.375L68.4375 88.125C68.2908 87.9322 68.1018 87.7756 67.8851 87.6672C67.6684 87.5589 67.4298 87.5017 67.1875 87.5H62.2656L61.2188 81.25H92.1875C93.4296 81.2463 94.6197 80.7512 95.498 79.873C96.3762 78.9947 96.8713 77.8046 96.875 76.5625V26.5625C96.8713 25.3204 96.3762 24.1303 95.498 23.252C94.6197 22.3738 93.4296 21.8787 92.1875 21.875ZM21.875 7.8125C21.875 7.3981 22.0396 7.00067 22.3326 6.70765C22.6257 6.41462 23.0231 6.25 23.4375 6.25H76.5625C76.9769 6.25 77.3743 6.41462 77.6674 6.70765C77.9604 7.00067 78.125 7.3981 78.125 7.8125V15.625H21.875V7.8125ZM21.875 18.75H78.125V54.6875C78.125 55.1019 77.9604 55.4993 77.6674 55.7924C77.3743 56.0854 76.9769 56.25 76.5625 56.25H23.4375C23.0231 56.25 22.6257 56.0854 22.3326 55.7924C22.0396 55.4993 21.875 55.1019 21.875 54.6875V18.75ZM66.4062 90.625L68.75 93.75H31.25L33.5938 90.625H66.4062ZM40.9062 87.5L41.9531 81.25H58.0469L59.0938 87.5H40.9062ZM93.75 76.5625C93.75 76.9769 93.5854 77.3743 93.2924 77.6674C92.9993 77.9604 92.6019 78.125 92.1875 78.125H7.8125C7.3981 78.125 7.00067 77.9604 6.70765 77.6674C6.41462 77.3743 6.25 76.9769 6.25 76.5625V71.875H93.75V76.5625ZM93.75 68.75H6.25V26.5625C6.25 26.1481 6.41462 25.7507 6.70765 25.4576C7.00067 25.1646 7.3981 25 7.8125 25H18.75V54.6875C18.7537 55.9296 19.2488 57.1197 20.127 57.998C21.0053 58.8762 22.1954 59.3713 23.4375 59.375H29.6875V62.5H18.75V65.625H31.25C31.6644 65.625 32.0618 65.4604 32.3549 65.1674C32.6479 64.8743 32.8125 64.4769 32.8125 64.0625V59.375H42.1875V65.625H45.3125V59.375H54.6875V65.625H57.8125V59.375H67.1875V64.0625C67.1875 64.4769 67.3521 64.8743 67.6451 65.1674C67.9382 65.4604 68.3356 65.625 68.75 65.625H81.25V62.5H70.3125V59.375H76.5625C77.8046 59.3713 78.9947 58.8762 79.873 57.998C80.7512 57.1197 81.2463 55.9296 81.25 54.6875V25H92.1875C92.6019 25 92.9993 25.1646 93.2924 25.4576C93.5854 25.7507 93.75 26.1481 93.75 26.5625V68.75Z" fill="white"/>
<path d="M71.875 9.375H75V12.5H71.875V9.375Z" fill="white"/>
<path d="M65.625 9.375H68.75V12.5H65.625V9.375Z" fill="white"/>
<path d="M59.375 9.375H62.5V12.5H59.375V9.375Z" fill="white"/>
<path d="M41.0828 27.0203L31.7078 36.3953C31.4149 36.6883 31.2503 37.0856 31.2503 37.5C31.2503 37.9143 31.4149 38.3116 31.7078 38.6046L41.0828 47.9796L43.2922 45.7703L35.0219 37.5L43.2922 29.2296L41.0828 27.0203Z" fill="white"/>
<path d="M58.9172 27.0203L56.7078 29.2296L64.9781 37.5L56.7078 45.7703L58.9172 47.9796L68.2922 38.6046C68.5851 38.3116 68.7497 37.9143 68.7497 37.5C68.7497 37.0856 68.5851 36.6883 68.2922 36.3953L58.9172 27.0203Z" fill="white"/>
<path d="M43.8283 51.0409L53.1967 22.906L56.1623 23.8935L46.7939 52.0284L43.8283 51.0409Z" fill="white"/>
</svg>
