<svg width="36" height="43" viewBox="0 0 36 43" fill="none" xmlns="http://www.w3.org/2000/svg">
<path d="M6.66113 32.7671C6.66113 33.864 7.55645 34.7593 8.65801 34.7593H10.9408V40.403C10.9408 41.8327 12.0893 42.9999 13.5002 42.9999C14.9158 42.9999 16.0596 41.8374 16.0596 40.403V34.7546H20.0439V40.3984C20.0439 41.828 21.1924 42.9952 22.6033 42.9952C24.0189 42.9952 25.1627 41.8327 25.1627 40.3984V34.7546H27.4455C28.5471 34.7546 29.4424 33.8593 29.4424 32.7624V14.2374H6.66113V32.7671ZM23.4002 4.63742L25.5049 1.59054C25.6268 1.41242 25.5986 1.17335 25.4346 1.05617C25.2705 0.943666 25.0361 0.999916 24.9143 1.17804L22.7299 4.34679C21.2908 3.7796 19.6877 3.46554 18.0049 3.46554C16.3221 3.46554 14.7189 3.7796 13.2799 4.34679L11.0955 1.18273C10.9736 1.0046 10.7393 0.943666 10.5752 1.06085C10.4111 1.17335 10.383 1.40773 10.5049 1.59523L12.6096 4.6421C9.26269 6.19835 6.91894 9.14679 6.61895 12.5921H29.4002C29.0908 9.1421 26.7424 6.19367 23.4002 4.63742ZM13.1955 9.4421C12.9461 9.4421 12.7023 9.36815 12.495 9.2296C12.2876 9.09104 12.126 8.89411 12.0306 8.66371C11.9351 8.4333 11.9101 8.17977 11.9588 7.93517C12.0075 7.69057 12.1275 7.46589 12.3039 7.28955C12.4802 7.1132 12.7049 6.99311 12.9495 6.94446C13.1941 6.8958 13.4476 6.92077 13.678 7.01621C13.9085 7.11165 14.1054 7.27327 14.2439 7.48063C14.3825 7.68799 14.4564 7.93178 14.4564 8.18117C14.4556 8.51532 14.3225 8.83554 14.0862 9.07183C13.8499 9.30811 13.5297 9.44124 13.1955 9.4421ZM22.9643 9.4421C22.7149 9.4421 22.4711 9.36815 22.2637 9.2296C22.0564 9.09104 21.8947 8.89411 21.7993 8.66371C21.7039 8.4333 21.6789 8.17977 21.7275 7.93517C21.7762 7.69057 21.8963 7.46589 22.0726 7.28955C22.249 7.1132 22.4737 6.99311 22.7183 6.94446C22.9629 6.8958 23.2164 6.92077 23.4468 7.01621C23.6772 7.11165 23.8741 7.27327 24.0127 7.48063C24.1512 7.68799 24.2252 7.93178 24.2252 8.18117C24.2243 8.51532 24.0912 8.83554 23.8549 9.07183C23.6186 9.30811 23.2984 9.44124 22.9643 9.4421ZM33.4361 14.1624C32.0205 14.1624 30.8768 15.3249 30.8768 16.7593V26.903C30.8768 28.3327 32.0252 29.4999 33.4361 29.4999C34.8518 29.4999 35.9955 28.3374 35.9955 26.903V16.7546C36.0002 15.3202 34.8564 14.1624 33.4361 14.1624ZM2.56426 14.1624C1.14863 14.1624 0.00488281 15.3249 0.00488281 16.7593V26.903C0.00488281 28.3327 1.15332 29.4999 2.56426 29.4999C3.97988 29.4999 5.12363 28.3374 5.12363 26.903V16.7546C5.12363 15.3202 3.97519 14.1624 2.56426 14.1624Z" fill="white"/>
</svg>
