<svg width="94" height="94" viewBox="0 0 94 94" fill="none" xmlns="http://www.w3.org/2000/svg">
<path d="M89.1875 18.875H78.25V4.8125C78.2463 3.57044 77.7512 2.38031 76.873 1.50203C75.9947 0.623761 74.8046 0.12871 73.5625 0.125H20.4375C19.1954 0.12871 18.0053 0.623761 17.127 1.50203C16.2488 2.38031 15.7537 3.57044 15.75 4.8125V18.875H4.8125C3.57044 18.8787 2.38031 19.3738 1.50203 20.252C0.623761 21.1303 0.12871 22.3204 0.125 23.5625V73.5625C0.12871 74.8046 0.623761 75.9947 1.50203 76.873C2.38031 77.7512 3.57044 78.2463 4.8125 78.25H35.7812L34.7344 84.5H29.8125C29.5702 84.5017 29.3316 84.5589 29.1149 84.6672C28.8982 84.7756 28.7092 84.9322 28.5625 85.125L23.875 91.375C23.7012 91.6083 23.5959 91.8854 23.571 92.1753C23.5462 92.4651 23.6028 92.7562 23.7344 93.0156C23.8609 93.276 24.0587 93.495 24.305 93.6471C24.5512 93.7993 24.8356 93.8783 25.125 93.875H68.875C69.1644 93.8783 69.4488 93.7993 69.695 93.6471C69.9413 93.495 70.1391 93.276 70.2656 93.0156C70.3972 92.7562 70.4538 92.4651 70.429 92.1753C70.4041 91.8854 70.2988 91.6083 70.125 91.375L65.4375 85.125C65.2908 84.9322 65.1018 84.7756 64.8851 84.6672C64.6684 84.5589 64.4298 84.5017 64.1875 84.5H59.2656L58.2188 78.25H89.1875C90.4296 78.2463 91.6197 77.7512 92.498 76.873C93.3762 75.9947 93.8713 74.8046 93.875 73.5625V23.5625C93.8713 22.3204 93.3762 21.1303 92.498 20.252C91.6197 19.3738 90.4296 18.8787 89.1875 18.875V18.875ZM18.875 4.8125C18.875 4.3981 19.0396 4.00067 19.3326 3.70765C19.6257 3.41462 20.0231 3.25 20.4375 3.25H73.5625C73.9769 3.25 74.3743 3.41462 74.6674 3.70765C74.9604 4.00067 75.125 4.3981 75.125 4.8125V12.625H18.875V4.8125ZM18.875 15.75H75.125V51.6875C75.125 52.1019 74.9604 52.4993 74.6674 52.7924C74.3743 53.0854 73.9769 53.25 73.5625 53.25H20.4375C20.0231 53.25 19.6257 53.0854 19.3326 52.7924C19.0396 52.4993 18.875 52.1019 18.875 51.6875V15.75ZM63.4062 87.625L65.75 90.75H28.25L30.5938 87.625H63.4062ZM37.9062 84.5L38.9531 78.25H55.0469L56.0938 84.5H37.9062ZM90.75 73.5625C90.75 73.9769 90.5854 74.3743 90.2924 74.6674C89.9993 74.9604 89.6019 75.125 89.1875 75.125H4.8125C4.3981 75.125 4.00067 74.9604 3.70765 74.6674C3.41462 74.3743 3.25 73.9769 3.25 73.5625V68.875H90.75V73.5625ZM90.75 65.75H3.25V23.5625C3.25 23.1481 3.41462 22.7507 3.70765 22.4576C4.00067 22.1646 4.3981 22 4.8125 22H15.75V51.6875C15.7537 52.9296 16.2488 54.1197 17.127 54.998C18.0053 55.8762 19.1954 56.3713 20.4375 56.375H26.6875V59.5H15.75V62.625H28.25C28.6644 62.625 29.0618 62.4604 29.3549 62.1674C29.6479 61.8743 29.8125 61.4769 29.8125 61.0625V56.375H39.1875V62.625H42.3125V56.375H51.6875V62.625H54.8125V56.375H64.1875V61.0625C64.1875 61.4769 64.3521 61.8743 64.6451 62.1674C64.9382 62.4604 65.3356 62.625 65.75 62.625H78.25V59.5H67.3125V56.375H73.5625C74.8046 56.3713 75.9947 55.8762 76.873 54.998C77.7512 54.1197 78.2463 52.9296 78.25 51.6875V22H89.1875C89.6019 22 89.9993 22.1646 90.2924 22.4576C90.5854 22.7507 90.75 23.1481 90.75 23.5625V65.75Z" fill="white"/>
<path d="M68.875 6.375H72V9.5H68.875V6.375Z" fill="white"/>
<path d="M62.625 6.375H65.75V9.5H62.625V6.375Z" fill="white"/>
<path d="M56.375 6.375H59.5V9.5H56.375V6.375Z" fill="white"/>
<path d="M38.0828 24.0203L28.7078 33.3953C28.4149 33.6883 28.2503 34.0856 28.2503 34.5C28.2503 34.9143 28.4149 35.3116 28.7078 35.6046L38.0828 44.9796L40.2922 42.7703L32.0219 34.5L40.2922 26.2296L38.0828 24.0203Z" fill="white"/>
<path d="M55.9172 24.0203L53.7078 26.2296L61.9781 34.5L53.7078 42.7703L55.9172 44.9796L65.2922 35.6046C65.5851 35.3116 65.7497 34.9143 65.7497 34.5C65.7497 34.0856 65.5851 33.6883 65.2922 33.3953L55.9172 24.0203Z" fill="white"/>
<path d="M40.8283 48.0408L50.1967 19.9059L53.1623 20.8934L43.7939 49.0283L40.8283 48.0408Z" fill="white"/>
</svg>
