<svg width="48" height="24" viewBox="0 0 48 24" fill="none" xmlns="http://www.w3.org/2000/svg">
<path d="M2.2 0.100098C0.972 0.100098 3.17619e-08 1.0601 3.17619e-08 2.2601C-4.91928e-05 2.54715 0.0571182 2.83133 0.168161 3.09604C0.279204 3.36074 0.441895 3.60066 0.646725 3.80177C0.851556 4.00287 1.09442 4.16113 1.36111 4.2673C1.62781 4.37347 1.913 4.42541 2.2 4.4201C3.44 4.4201 4.42 3.4601 4.42 2.2601C4.42 1.0601 3.44 0.100098 2.2 0.100098ZM17.42 0.140098C10.7 0.140098 6.5 4.7201 6.5 12.0001C6.5 19.3401 10.7 23.9001 17.42 23.9001C24.1 23.9001 28.32 19.3401 28.32 12.0001C28.32 4.7201 24.1 0.140098 17.42 0.140098ZM39.1 0.140098C34.1 0.140098 30.54 2.9001 30.54 7.0001C30.54 10.2601 32.56 12.3001 36.8 13.2801L39.78 14.0001C42.68 14.6601 43.86 15.6201 43.86 17.2801C43.86 19.2001 41.92 20.5601 39.16 20.5601C36.34 20.5601 34.22 19.1801 34 17.0601H30C30.16 21.3001 33.64 23.9001 38.92 23.9001C44.5 23.9001 48 21.1601 48 16.8001C48 13.3801 46 11.4401 41.36 10.3801L38.7 9.7801C35.88 9.1001 34.72 8.2001 34.72 6.6801C34.72 4.7601 36.48 3.4801 39.08 3.4801C41.7 3.4801 43.5 4.7801 43.7 6.9201H47.62C47.52 2.8801 44.18 0.140098 39.1 0.140098ZM17.42 3.6401C21.5 3.6401 24.12 6.9001 24.12 12.0001C24.12 17.1401 21.5 20.4001 17.42 20.4001C13.3 20.4001 10.7 17.1401 10.7 12.0001C10.7 6.9001 13.3 3.6401 17.42 3.6401ZM0.222 6.6201V23.5201H4.2V6.6201H0.22H0.222Z" fill="white"/>
</svg>
