<svg width="497" height="948" viewBox="0 0 497 948" fill="none" xmlns="http://www.w3.org/2000/svg">
<circle cx="10.5221" cy="936.74" r="10.5221" transform="rotate(-90 10.5221 936.74)" fill="white" fill-opacity="0.03"/>
<circle cx="10.5221" cy="844.118" r="10.5221" transform="rotate(-90 10.5221 844.118)" fill="white" fill-opacity="0.03"/>
<circle cx="10.5221" cy="751.496" r="10.5221" transform="rotate(-90 10.5221 751.496)" fill="white" fill-opacity="0.03"/>
<circle cx="10.5221" cy="658.875" r="10.5221" transform="rotate(-90 10.5221 658.875)" fill="white" fill-opacity="0.03"/>
<circle cx="10.5221" cy="566.252" r="10.5221" transform="rotate(-90 10.5221 566.252)" fill="white" fill-opacity="0.03"/>
<circle cx="10.5221" cy="473.631" r="10.5221" transform="rotate(-90 10.5221 473.631)" fill="white" fill-opacity="0.03"/>
<circle cx="10.5221" cy="381.009" r="10.5221" transform="rotate(-90 10.5221 381.009)" fill="white" fill-opacity="0.03"/>
<circle cx="10.5221" cy="288.388" r="10.5221" transform="rotate(-90 10.5221 288.388)" fill="white" fill-opacity="0.03"/>
<circle cx="10.5221" cy="195.765" r="10.5221" transform="rotate(-90 10.5221 195.765)" fill="white" fill-opacity="0.03"/>
<circle cx="10.5221" cy="103.144" r="10.5221" transform="rotate(-90 10.5221 103.144)" fill="white" fill-opacity="0.03"/>
<circle cx="10.5221" cy="10.5221" r="10.5221" transform="rotate(-90 10.5221 10.5221)" fill="white" fill-opacity="0.03"/>
<circle cx="112.408" cy="936.74" r="10.5221" transform="rotate(-90 112.408 936.74)" fill="white" fill-opacity="0.03"/>
<circle cx="112.408" cy="844.118" r="10.5221" transform="rotate(-90 112.408 844.118)" fill="white" fill-opacity="0.03"/>
<circle cx="112.408" cy="751.496" r="10.5221" transform="rotate(-90 112.408 751.496)" fill="white" fill-opacity="0.03"/>
<circle cx="112.408" cy="658.875" r="10.5221" transform="rotate(-90 112.408 658.875)" fill="white" fill-opacity="0.03"/>
<circle cx="112.408" cy="566.252" r="10.5221" transform="rotate(-90 112.408 566.252)" fill="white" fill-opacity="0.03"/>
<circle cx="112.408" cy="473.631" r="10.5221" transform="rotate(-90 112.408 473.631)" fill="white" fill-opacity="0.03"/>
<circle cx="112.408" cy="381.009" r="10.5221" transform="rotate(-90 112.408 381.009)" fill="white" fill-opacity="0.03"/>
<circle cx="112.408" cy="288.388" r="10.5221" transform="rotate(-90 112.408 288.388)" fill="white" fill-opacity="0.03"/>
<circle cx="112.408" cy="195.765" r="10.5221" transform="rotate(-90 112.408 195.765)" fill="white" fill-opacity="0.03"/>
<circle cx="112.408" cy="103.143" r="10.5221" transform="rotate(-90 112.408 103.143)" fill="white" fill-opacity="0.03"/>
<circle cx="112.408" cy="10.5221" r="10.5221" transform="rotate(-90 112.408 10.5221)" fill="white" fill-opacity="0.03"/>
<circle cx="214.287" cy="936.74" r="10.5221" transform="rotate(-90 214.287 936.74)" fill="white" fill-opacity="0.03"/>
<circle cx="214.287" cy="844.118" r="10.5221" transform="rotate(-90 214.287 844.118)" fill="white" fill-opacity="0.03"/>
<circle cx="214.287" cy="751.496" r="10.5221" transform="rotate(-90 214.287 751.496)" fill="white" fill-opacity="0.03"/>
<circle cx="214.287" cy="658.875" r="10.5221" transform="rotate(-90 214.287 658.875)" fill="white" fill-opacity="0.03"/>
<circle cx="214.287" cy="566.252" r="10.5221" transform="rotate(-90 214.287 566.252)" fill="white" fill-opacity="0.03"/>
<circle cx="214.287" cy="473.631" r="10.5221" transform="rotate(-90 214.287 473.631)" fill="white" fill-opacity="0.03"/>
<circle cx="214.287" cy="381.009" r="10.5221" transform="rotate(-90 214.287 381.009)" fill="white" fill-opacity="0.03"/>
<circle cx="214.287" cy="288.388" r="10.5221" transform="rotate(-90 214.287 288.388)" fill="white" fill-opacity="0.03"/>
<circle cx="214.287" cy="195.765" r="10.5221" transform="rotate(-90 214.287 195.765)" fill="white" fill-opacity="0.03"/>
<circle cx="214.287" cy="103.143" r="10.5221" transform="rotate(-90 214.287 103.143)" fill="white" fill-opacity="0.03"/>
<circle cx="214.287" cy="10.5221" r="10.5221" transform="rotate(-90 214.287 10.5221)" fill="white" fill-opacity="0.03"/>
<circle cx="316.173" cy="936.74" r="10.5221" transform="rotate(-90 316.173 936.74)" fill="white" fill-opacity="0.03"/>
<circle cx="316.173" cy="844.118" r="10.5221" transform="rotate(-90 316.173 844.118)" fill="white" fill-opacity="0.03"/>
<circle cx="316.173" cy="751.496" r="10.5221" transform="rotate(-90 316.173 751.496)" fill="white" fill-opacity="0.03"/>
<circle cx="316.173" cy="658.875" r="10.5221" transform="rotate(-90 316.173 658.875)" fill="white" fill-opacity="0.03"/>
<circle cx="316.173" cy="566.252" r="10.5221" transform="rotate(-90 316.173 566.252)" fill="white" fill-opacity="0.03"/>
<circle cx="316.173" cy="473.631" r="10.5221" transform="rotate(-90 316.173 473.631)" fill="white" fill-opacity="0.03"/>
<circle cx="316.173" cy="381.009" r="10.5221" transform="rotate(-90 316.173 381.009)" fill="white" fill-opacity="0.03"/>
<circle cx="316.173" cy="288.388" r="10.5221" transform="rotate(-90 316.173 288.388)" fill="white" fill-opacity="0.03"/>
<circle cx="316.173" cy="195.766" r="10.5221" transform="rotate(-90 316.173 195.766)" fill="white" fill-opacity="0.03"/>
<circle cx="316.173" cy="103.143" r="10.5221" transform="rotate(-90 316.173 103.143)" fill="white" fill-opacity="0.03"/>
<circle cx="316.173" cy="10.5221" r="10.5221" transform="rotate(-90 316.173 10.5221)" fill="white" fill-opacity="0.03"/>
<circle cx="418.059" cy="936.74" r="10.5221" transform="rotate(-90 418.059 936.74)" fill="white" fill-opacity="0.03"/>
<circle cx="418.059" cy="844.118" r="10.5221" transform="rotate(-90 418.059 844.118)" fill="white" fill-opacity="0.03"/>
<circle cx="418.059" cy="751.496" r="10.5221" transform="rotate(-90 418.059 751.496)" fill="white" fill-opacity="0.03"/>
<circle cx="418.059" cy="658.875" r="10.5221" transform="rotate(-90 418.059 658.875)" fill="white" fill-opacity="0.03"/>
<circle cx="418.059" cy="566.253" r="10.5221" transform="rotate(-90 418.059 566.253)" fill="white" fill-opacity="0.03"/>
<circle cx="418.059" cy="473.631" r="10.5221" transform="rotate(-90 418.059 473.631)" fill="white" fill-opacity="0.03"/>
<circle cx="418.059" cy="381.009" r="10.5221" transform="rotate(-90 418.059 381.009)" fill="white" fill-opacity="0.03"/>
<circle cx="418.059" cy="288.388" r="10.5221" transform="rotate(-90 418.059 288.388)" fill="white" fill-opacity="0.03"/>
<circle cx="418.059" cy="195.766" r="10.5221" transform="rotate(-90 418.059 195.766)" fill="white" fill-opacity="0.03"/>
<circle cx="418.059" cy="103.143" r="10.5221" transform="rotate(-90 418.059 103.143)" fill="white" fill-opacity="0.03"/>
<circle cx="418.059" cy="10.5221" r="10.5221" transform="rotate(-90 418.059 10.5221)" fill="white" fill-opacity="0.03"/>
</svg>
