<svg width="151" height="150" viewBox="0 0 151 150" fill="none" xmlns="http://www.w3.org/2000/svg">
    <circle cx="1.67578" cy="1.67578" r="1.67578" fill="#FE6201"/>
    <circle cx="16.427" cy="1.67578" r="1.67578" fill="#FE6201"/>
    <circle cx="31.1782" cy="1.67578" r="1.67578" fill="#FE6201"/>
    <circle cx="45.9293" cy="1.67578" r="1.67578" fill="#FE6201"/>
    <circle cx="60.6805" cy="1.67578" r="1.67578" fill="#FE6201"/>
    <circle cx="75.4316" cy="1.67578" r="1.67578" fill="#FE6201"/>
    <circle cx="90.1829" cy="1.67578" r="1.67578" fill="#FE6201"/>
    <circle cx="104.934" cy="1.67578" r="1.67578" fill="#FE6201"/>
    <circle cx="119.685" cy="1.67578" r="1.67578" fill="#FE6201"/>
    <circle cx="134.436" cy="1.67578" r="1.67578" fill="#FE6201"/>
    <circle cx="149.188" cy="1.67578" r="1.67578" fill="#FE6201"/>
    <circle cx="1.67578" cy="17.9022" r="1.67578" fill="#FE6201"/>
    <circle cx="16.427" cy="17.9022" r="1.67578" fill="#FE6201"/>
    <circle cx="31.1782" cy="17.9022" r="1.67578" fill="#FE6201"/>
    <circle cx="45.9293" cy="17.9022" r="1.67578" fill="#FE6201"/>
    <circle cx="60.6805" cy="17.9022" r="1.67578" fill="#FE6201"/>
    <circle cx="75.4316" cy="17.9022" r="1.67578" fill="#FE6201"/>
    <circle cx="90.1829" cy="17.9022" r="1.67578" fill="#FE6201"/>
    <circle cx="104.934" cy="17.9022" r="1.67578" fill="#FE6201"/>
    <circle cx="119.685" cy="17.9022" r="1.67578" fill="#FE6201"/>
    <circle cx="134.436" cy="17.9022" r="1.67578" fill="#FE6201"/>
    <circle cx="149.188" cy="17.9022" r="1.67578" fill="#FE6201"/>
    <circle cx="1.67578" cy="34.1281" r="1.67578" fill="#FE6201"/>
    <circle cx="16.427" cy="34.1281" r="1.67578" fill="#FE6201"/>
    <circle cx="31.1782" cy="34.1281" r="1.67578" fill="#FE6201"/>
    <circle cx="45.9293" cy="34.1281" r="1.67578" fill="#FE6201"/>
    <circle cx="60.6805" cy="34.1281" r="1.67578" fill="#FE6201"/>
    <circle cx="75.4316" cy="34.1281" r="1.67578" fill="#FE6201"/>
    <circle cx="90.1829" cy="34.1281" r="1.67578" fill="#FE6201"/>
    <circle cx="104.934" cy="34.1281" r="1.67578" fill="#FE6201"/>
    <circle cx="119.685" cy="34.1281" r="1.67578" fill="#FE6201"/>
    <circle cx="134.436" cy="34.1281" r="1.67578" fill="#FE6201"/>
    <circle cx="149.188" cy="34.1281" r="1.67578" fill="#FE6201"/>
    <circle cx="1.67578" cy="50.3545" r="1.67578" fill="#FE6201"/>
    <circle cx="16.427" cy="50.3545" r="1.67578" fill="#FE6201"/>
    <circle cx="31.1782" cy="50.3545" r="1.67578" fill="#FE6201"/>
    <circle cx="45.9293" cy="50.3545" r="1.67578" fill="#FE6201"/>
    <circle cx="60.6805" cy="50.3545" r="1.67578" fill="#FE6201"/>
    <circle cx="75.4316" cy="50.3545" r="1.67578" fill="#FE6201"/>
    <circle cx="90.1829" cy="50.3545" r="1.67578" fill="#FE6201"/>
    <circle cx="104.934" cy="50.3545" r="1.67578" fill="#FE6201"/>
    <circle cx="119.685" cy="50.3545" r="1.67578" fill="#FE6201"/>
    <circle cx="134.436" cy="50.3545" r="1.67578" fill="#FE6201"/>
    <circle cx="149.188" cy="50.3545" r="1.67578" fill="#FE6201"/>
    <circle cx="1.67578" cy="66.581" r="1.67578" fill="#FE6201"/>
    <circle cx="16.427" cy="66.581" r="1.67578" fill="#FE6201"/>
    <circle cx="31.1782" cy="66.581" r="1.67578" fill="#FE6201"/>
    <circle cx="45.9293" cy="66.581" r="1.67578" fill="#FE6201"/>
    <circle cx="60.6805" cy="66.581" r="1.67578" fill="#FE6201"/>
    <circle cx="75.4316" cy="66.581" r="1.67578" fill="#FE6201"/>
    <circle cx="90.1829" cy="66.581" r="1.67578" fill="#FE6201"/>
    <circle cx="104.934" cy="66.581" r="1.67578" fill="#FE6201"/>
    <circle cx="119.685" cy="66.581" r="1.67578" fill="#FE6201"/>
    <circle cx="134.436" cy="66.581" r="1.67578" fill="#FE6201"/>
    <circle cx="149.188" cy="66.581" r="1.67578" fill="#FE6201"/>
    <circle cx="1.67578" cy="82.8075" r="1.67578" fill="#FE6201"/>
    <circle cx="16.427" cy="82.8075" r="1.67578" fill="#FE6201"/>
    <circle cx="31.1782" cy="82.8075" r="1.67578" fill="#FE6201"/>
    <circle cx="45.9293" cy="82.8075" r="1.67578" fill="#FE6201"/>
    <circle cx="60.6805" cy="82.8075" r="1.67578" fill="#FE6201"/>
    <circle cx="75.4316" cy="82.8075" r="1.67578" fill="#FE6201"/>
    <circle cx="90.1829" cy="82.8075" r="1.67578" fill="#FE6201"/>
    <circle cx="104.934" cy="82.8075" r="1.67578" fill="#FE6201"/>
    <circle cx="119.685" cy="82.8075" r="1.67578" fill="#FE6201"/>
    <circle cx="134.436" cy="82.8075" r="1.67578" fill="#FE6201"/>
    <circle cx="149.188" cy="82.8075" r="1.67578" fill="#FE6201"/>
    <circle cx="1.67578" cy="99.0334" r="1.67578" fill="#FE6201"/>
    <circle cx="16.427" cy="99.0334" r="1.67578" fill="#FE6201"/>
    <circle cx="31.1782" cy="99.0334" r="1.67578" fill="#FE6201"/>
    <circle cx="45.9293" cy="99.0334" r="1.67578" fill="#FE6201"/>
    <circle cx="60.6805" cy="99.0334" r="1.67578" fill="#FE6201"/>
    <circle cx="75.4316" cy="99.0334" r="1.67578" fill="#FE6201"/>
    <circle cx="90.1829" cy="99.0334" r="1.67578" fill="#FE6201"/>
    <circle cx="104.934" cy="99.0334" r="1.67578" fill="#FE6201"/>
    <circle cx="119.685" cy="99.0334" r="1.67578" fill="#FE6201"/>
    <circle cx="134.436" cy="99.0334" r="1.67578" fill="#FE6201"/>
    <circle cx="149.188" cy="99.0334" r="1.67578" fill="#FE6201"/>
    <circle cx="1.67578" cy="115.26" r="1.67578" fill="#FE6201"/>
    <circle cx="16.427" cy="115.26" r="1.67578" fill="#FE6201"/>
    <circle cx="31.1782" cy="115.26" r="1.67578" fill="#FE6201"/>
    <circle cx="45.9293" cy="115.26" r="1.67578" fill="#FE6201"/>
    <circle cx="60.6805" cy="115.26" r="1.67578" fill="#FE6201"/>
    <circle cx="75.4316" cy="115.26" r="1.67578" fill="#FE6201"/>
    <circle cx="90.1829" cy="115.26" r="1.67578" fill="#FE6201"/>
    <circle cx="104.934" cy="115.26" r="1.67578" fill="#FE6201"/>
    <circle cx="119.685" cy="115.26" r="1.67578" fill="#FE6201"/>
    <circle cx="134.436" cy="115.26" r="1.67578" fill="#FE6201"/>
    <circle cx="149.188" cy="115.26" r="1.67578" fill="#FE6201"/>
    <circle cx="1.67578" cy="131.486" r="1.67578" fill="#FE6201"/>
    <circle cx="16.427" cy="131.486" r="1.67578" fill="#FE6201"/>
    <circle cx="31.1782" cy="131.486" r="1.67578" fill="#FE6201"/>
    <circle cx="45.9293" cy="131.486" r="1.67578" fill="#FE6201"/>
    <circle cx="60.6805" cy="131.486" r="1.67578" fill="#FE6201"/>
    <circle cx="75.4316" cy="131.486" r="1.67578" fill="#FE6201"/>
    <circle cx="90.1829" cy="131.486" r="1.67578" fill="#FE6201"/>
    <circle cx="104.934" cy="131.486" r="1.67578" fill="#FE6201"/>
    <circle cx="119.685" cy="131.486" r="1.67578" fill="#FE6201"/>
    <circle cx="134.436" cy="131.486" r="1.67578" fill="#FE6201"/>
    <circle cx="149.188" cy="131.486" r="1.67578" fill="#FE6201"/>
    <circle cx="1.67578" cy="147.712" r="1.67578" fill="#FE6201"/>
    <circle cx="16.427" cy="147.712" r="1.67578" fill="#FE6201"/>
    <circle cx="31.1782" cy="147.712" r="1.67578" fill="#FE6201"/>
    <circle cx="45.9293" cy="147.712" r="1.67578" fill="#FE6201"/>
    <circle cx="60.6805" cy="147.712" r="1.67578" fill="#FE6201"/>
    <circle cx="75.4316" cy="147.712" r="1.67578" fill="#FE6201"/>
    <circle cx="90.1829" cy="147.712" r="1.67578" fill="#FE6201"/>
    <circle cx="104.934" cy="147.712" r="1.67578" fill="#FE6201"/>
    <circle cx="119.685" cy="147.712" r="1.67578" fill="#FE6201"/>
    <circle cx="134.436" cy="147.712" r="1.67578" fill="#FE6201"/>
    <circle cx="149.188" cy="147.712" r="1.67578" fill="#FE6201"/>
    </svg>